<?xml version="1.0" encoding="utf-8"?>
<!-- Generator: Adobe Illustrator 24.3.0, SVG Export Plug-In . SVG Version: 6.00 Build 0)  -->
<svg version="1.1" id="Warstwa_1" xmlns="http://www.w3.org/2000/svg" xmlns:xlink="http://www.w3.org/1999/xlink" x="0px" y="0px"
	 viewBox="0 0 141.7 141.7" style="enable-background:new 0 0 141.7 141.7;" xml:space="preserve">
<style type="text/css">
	.st0{fill:#2F3634;}
	.st1{fill-rule:evenodd;clip-rule:evenodd;fill:#6E8A37;}
</style>
<g id="Group_143" transform="translate(-3114.074 -1041.562)">
	<path id="Path_192" class="st0" d="M3209.4,1112c1.8,13.4-7.5,25.7-20.9,27.6c-13.4,1.8-25.7-7.5-27.6-20.9
		c-1.8-13.4,7.5-25.7,20.9-27.6c1.1-0.2,2.2-0.2,3.3-0.2c1,0,1.9,0.1,2.9,0.2c0.1-1.1,0.3-2.1,0.6-3.1c-1.2-0.1-2.3-0.2-3.5-0.2
		c-15.3,0-27.7,12.4-27.7,27.6c0,15.3,12.4,27.7,27.6,27.7c15.3,0,27.7-12.4,27.7-27.6c0-1.3-0.1-2.7-0.3-4
		C3211.5,1111.6,3210.4,1111.8,3209.4,1112z"/>
	<path id="Path_193" class="st1" d="M3179.7,1108.1l4.8,9.4c0,0,7.9-19,20.3-25.4c-0.3,4.5-1.5,8.5,0.6,13.3
		c-5.4,1.2-16.6,14.8-20.3,21.5c-5.1-6.3-11.2-11.2-15.4-12.7L3179.7,1108.1z"/>
</g>
</svg>
