<?xml version="1.0" encoding="utf-8"?>
<!-- Generator: Adobe Illustrator 24.3.0, SVG Export Plug-In . SVG Version: 6.00 Build 0)  -->
<svg version="1.1" id="Layer_1" xmlns="http://www.w3.org/2000/svg" xmlns:xlink="http://www.w3.org/1999/xlink" x="0px" y="0px"
	 viewBox="0 0 500 500" style="enable-background:new 0 0 500 500;" xml:space="preserve">
<style type="text/css">
	.st0{fill:#2473BB;}
	.st1{clip-path:url(#XMLID_23_);}
	.st2{clip-path:url(#XMLID_24_);fill:url(#XMLID_25_);}
	.st3{clip-path:url(#XMLID_24_);fill:url(#XMLID_26_);}
	.st4{clip-path:url(#XMLID_24_);fill:url(#XMLID_27_);}
	.st5{clip-path:url(#XMLID_23_);fill:url(#XMLID_28_);}
	.st6{clip-path:url(#XMLID_29_);fill:url(#XMLID_30_);}
</style>
<g id="XMLID_2_">
	<path id="XMLID_6_" class="st0" d="M146.6,295.6V223h28.3c4.8,0,8.8,0.5,11.9,1.5c3.2,1,5.9,3.1,8.2,6.2c2.3,3.2,3.5,6.9,3.5,11.1
		c0,4-1.2,7.5-3.5,10.5c-2.3,3-5.6,4.8-9.7,5.7c5.1,0.9,9,3,11.6,6.2c2.6,3.3,3.9,7.1,3.9,11.6c0,5.6-1.8,10.3-5.5,14.1
		c-3.7,3.8-9.3,5.7-16.9,5.7L146.6,295.6L146.6,295.6z M158.9,253.5h16c3.3,0,5.8-1,7.7-2.9c1.9-1.9,2.8-4.4,2.8-7.4
		c0-3.3-1.1-5.8-3.2-7.4c-2.2-1.6-4.7-2.4-7.6-2.4h-15.7V253.5z M158.9,284.7h16.9c3.6,0,6.4-0.9,8.5-2.8c2.1-1.9,3.1-4.4,3.1-7.6
		c0-3-1.1-5.5-3.2-7.5c-2.1-1.9-4.9-2.9-8.4-2.9h-17V284.7z"/>
	<path id="XMLID_9_" class="st0" d="M219.7,235.6h-12.1V223h12.1V235.6z M219.7,295.6h-12.1v-53.7h12.1V295.6z"/>
	<path id="XMLID_12_" class="st0" d="M251,296.7c-7.9,0-14-2.9-18.2-8.6c-4.2-5.7-6.3-12.2-6.3-19.6c0-7.9,2.3-14.6,6.9-19.8
		c4.6-5.3,10.7-7.9,18.3-7.9c7.2,0,13.1,2.6,17.7,7.7c4.6,5.1,6.9,11.8,6.9,20.1c0,8.5-2.4,15.3-7.2,20.4
		C264.4,294.1,258.3,296.7,251,296.7 M251.4,286.7c8.2,0,12.2-6.1,12.2-18.2c0-5.5-1-9.8-2.9-13c-1.9-3.2-4.9-4.8-9-4.8
		c-4.2,0-7.3,1.6-9.3,4.9c-2,3.3-3,7.6-3,13.1c0,5.9,1.1,10.3,3.2,13.4C244.7,285.2,247.7,286.7,251.4,286.7"/>
	<path id="XMLID_15_" class="st0" d="M369.4,278.5l11,1.5c-1.4,4.9-4.2,8.9-8.3,12c-4.1,3.2-9.3,4.7-15.5,4.7
		c-7.4,0-13.4-2.5-18-7.5c-4.5-5-6.8-11.8-6.8-20.3c0-8.1,2.3-14.8,6.9-20.2c4.6-5.3,10.8-8,18.6-8c7.7,0,13.6,2.6,17.8,7.9
		c4.2,5.2,6.3,12,6.3,20.2l-0.1,1.4h-36.9c0,3.7,0.3,6.6,1,8.8c0.7,2.2,2.1,4.1,4.1,5.7c2.1,1.6,4.6,2.4,7.7,2.4
		C363.3,287.2,367.3,284.3,369.4,278.5 M368.7,262.4c0-3.9-1.2-7-3.5-9.5c-2.3-2.4-5.1-3.7-8.5-3.7c-3.3,0-6.1,1.1-8.3,3.4
		c-2.2,2.3-3.5,5.5-3.9,9.7L368.7,262.4L368.7,262.4z"/>
	<path id="XMLID_16_" class="st0" d="M432.5,295.6h-12.1V262c0-3.5-0.8-6.2-2.4-8c-1.6-1.8-3.6-2.7-5.9-2.7c-3.2,0-5.9,1.4-8.3,4.1
		c-2.4,2.8-3.6,6.9-3.6,12.5v27.6H388v-53.7h11.1v12.4c3.9-9,9.3-13.6,16.3-13.6c4.7,0,8.7,1.5,12.1,4.5c3.4,3,5,8.2,5,15.7V295.6z"
		/>
	<path id="XMLID_20_" class="st0" d="M320.5,245.2c4.3,3.5,6.4,7.4,6.4,11.6c0,4.8-2,8.7-6,11.9c-4,3.1-9.3,4.7-15.9,4.7
		c-2.8,0-6.2-0.5-10-1.4c-2.5,1.1-3.7,2.9-3.7,5.3c0,1.3,0.6,2.5,1.8,3.6c1.2,1.1,3,1.7,5.5,1.7h16c5.5,0,9.8,1.4,12.9,4.2
		c3.1,2.8,4.7,6.3,4.7,10.5c0,5.1-2.4,9.3-7.1,12.7c-4.7,3.4-11.7,5-21,5c-17.4,0-26.1-4.9-26.1-14.6c0-4.8,2.6-8.5,7.9-10.9
		c-3.3-2.8-5-5.8-5-8.9c0-4.7,2.9-8.4,8.6-11.2c-5-3-7.5-7.2-7.5-12.5c0-4.5,1.8-8.3,5.5-11.5c3.7-3.2,9.2-4.8,16.7-4.8
		c3.4,0,6.9,0.4,10.4,1.1 M291.1,292.8c-1.7,1.6-2.6,3.2-2.6,4.6c0,2.5,1.5,4.6,4.4,6.5c2.9,1.9,7.6,2.8,13.9,2.8
		c9.4,0,14-2.4,14-7.2c0-1.8-0.8-3.1-2.5-4c-1.6-0.9-3.5-1.4-5.6-1.4h-12.9C297.4,294.1,294.5,293.6,291.1,292.8 M304.4,266.2
		c6.6,0,9.9-3.1,9.9-9.3c0-2.4-0.8-4.4-2.5-6c-1.7-1.6-4.1-2.5-7.2-2.5c-3.2,0-5.7,0.9-7.4,2.6c-1.8,1.7-2.6,3.8-2.6,6.4
		c0,2.6,0.9,4.8,2.6,6.4C298.9,265.3,301.3,266.2,304.4,266.2"/>
	<polyline id="XMLID_21_" class="st0" points="313.5,242.2 329.3,236.9 331,247.2 322.3,248 	"/>
	<g id="XMLID_1_">
		<defs>
			<path id="XMLID_70_" d="M67.5,219.2c0,18.9,15.3,34.2,34.2,34.2c18.9,0,34.2-15.3,34.2-34.2c0-18.9-15.3-34.2-34.2-34.2
				C82.8,185,67.5,200.3,67.5,219.2"/>
		</defs>
		<clipPath id="XMLID_23_">
			<use xlink:href="#XMLID_70_"  style="overflow:visible;"/>
		</clipPath>
		<g id="XMLID_88_" class="st1">
			<defs>
				<path id="XMLID_89_" d="M67.5,219.2c0,18.9,15.3,34.2,34.2,34.2c18.9,0,34.2-15.3,34.2-34.2c0-18.9-15.3-34.2-34.2-34.2
					C82.8,185,67.5,200.3,67.5,219.2"/>
			</defs>
			<clipPath id="XMLID_24_">
				<use xlink:href="#XMLID_89_"  style="overflow:visible;"/>
			</clipPath>
			
				<linearGradient id="XMLID_25_" gradientUnits="userSpaceOnUse" x1="-0.7544" y1="2.269605e-02" x2="0.4766" y2="2.269605e-02" gradientTransform="matrix(58.8208 0 0 58.8208 110.5715 239.7108)">
				<stop  offset="0" style="stop-color:#D6E6A6"/>
				<stop  offset="3.400000e-03" style="stop-color:#D6E6A6"/>
				<stop  offset="1" style="stop-color:#D3DEAA"/>
			</linearGradient>
			<path id="XMLID_92_" class="st2" d="M68.8,228.7L68.8,228.7c4.1,14.3,17.3,24.8,32.9,24.8c11.4,0,21.5-5.6,27.7-14.1
				c-1.1,0.4-2.2,0.6-3.4,0.6c0,0,0,0,0,0l0,0l0,0c-0.1,0-0.1,0-0.2,0c-5.8-0.1-12.9-4.3-19.8-10.4c-6.5,6.6-18.1,12.8-28.4,13.9
				C73.5,239.4,70.4,234.3,68.8,228.7"/>
			
				<linearGradient id="XMLID_26_" gradientUnits="userSpaceOnUse" x1="0.925" y1="0.3051" x2="2.1559" y2="0.3051" gradientTransform="matrix(-33.3679 0 0 -33.3679 169.4577 232.5107)">
				<stop  offset="0" style="stop-color:#CDD894"/>
				<stop  offset="0.3285" style="stop-color:#BFCF83"/>
				<stop  offset="1" style="stop-color:#9EBA56"/>
			</linearGradient>
			<path id="XMLID_91_" class="st3" d="M132.8,204.8c-8,5.1-15.5,8.9-22.5,11.7c0.2,0.5,0.4,1.1,0.5,1.6c1.1,3.3-1,7.4-4.9,11.4
				c6.9,6.1,14,10.3,19.8,10.4c0.1,0,0.1,0,0.2,0l0,0c0,0,0,0,0,0c1.2,0,2.4-0.2,3.4-0.6c4.1-5.6,6.5-12.6,6.5-20.1
				C136,214.1,134.8,209.2,132.8,204.8"/>
			
				<linearGradient id="XMLID_27_" gradientUnits="userSpaceOnUse" x1="0.4726" y1="0.3761" x2="1.7035" y2="0.3761" gradientTransform="matrix(-24.9779 -43.2653 -42.8022 27.0976 163.7143 247.3835)">
				<stop  offset="0" style="stop-color:#CFE294"/>
				<stop  offset="2.800000e-03" style="stop-color:#CFE294"/>
				<stop  offset="0.173" style="stop-color:#B9D187"/>
				<stop  offset="0.5223" style="stop-color:#87B268"/>
				<stop  offset="1" style="stop-color:#338D45"/>
			</linearGradient>
			<path id="XMLID_90_" class="st4" d="M101.7,185c-3.8,0-7.4,0.6-10.8,1.7c7.3,5,14.3,14.9,19.4,29.8c7-2.9,14.5-6.6,22.5-11.7
				C127.3,193.1,115.5,185,101.7,185"/>
		</g>
		<radialGradient id="XMLID_28_" cx="83.7803" cy="213.2197" r="28.8965" gradientUnits="userSpaceOnUse">
			<stop  offset="0" style="stop-color:#151515"/>
			<stop  offset="9.190000e-02" style="stop-color:#313539"/>
			<stop  offset="0.2143" style="stop-color:#454F58"/>
			<stop  offset="0.34" style="stop-color:#556677"/>
			<stop  offset="0.4668" style="stop-color:#607A93"/>
			<stop  offset="0.5949" style="stop-color:#698AAB"/>
			<stop  offset="0.7251" style="stop-color:#6D96BE"/>
			<stop  offset="0.8585" style="stop-color:#719DCA"/>
			<stop  offset="1" style="stop-color:#72A1D0"/>
		</radialGradient>
		<path id="XMLID_75_" class="st5" d="M110.8,218.1c-13.7-42.2-42.8-46.4-51.6-13.2C41.4,272.1,116.3,234.9,110.8,218.1"/>
		<g id="XMLID_71_" class="st1">
			<defs>
				<path id="XMLID_72_" d="M57.9,219.2c0,7.4,2.2,14.3,6.1,19.9c16.1-2.5,34.3-16.2,31.6-25.1c-3.9-12.8-9.7-22.1-15.7-27.9
					C67,191.6,57.9,204.3,57.9,219.2"/>
			</defs>
			<clipPath id="XMLID_29_">
				<use xlink:href="#XMLID_72_"  style="overflow:visible;"/>
			</clipPath>
			
				<radialGradient id="XMLID_30_" cx="0.2697" cy="2.3786" r="1.2309" gradientTransform="matrix(3.5712 -31.4949 -18.6591 -2.0099 112.6558 223.3005)" gradientUnits="userSpaceOnUse">
				<stop  offset="0" style="stop-color:#E7F2F8"/>
				<stop  offset="0.1166" style="stop-color:#CADBED"/>
				<stop  offset="0.3002" style="stop-color:#A5C1E1"/>
				<stop  offset="0.4829" style="stop-color:#89AED7"/>
				<stop  offset="0.6622" style="stop-color:#76A2D1"/>
				<stop  offset="0.8365" style="stop-color:#6A9BCD"/>
				<stop  offset="1" style="stop-color:#6699CC"/>
			</radialGradient>
			<polygon id="XMLID_73_" class="st6" points="52,238.5 58.4,181.9 104.3,186.8 97.9,243.5 			"/>
		</g>
	</g>
</g>
</svg>
