<?xml version="1.0" encoding="utf-8"?>
<!-- Generator: Adobe Illustrator 24.3.0, SVG Export Plug-In . SVG Version: 6.00 Build 0)  -->
<svg version="1.1" id="Warstwa_1" xmlns="http://www.w3.org/2000/svg" xmlns:xlink="http://www.w3.org/1999/xlink" x="0px" y="0px"
	 viewBox="0 0 141.7 141.7" style="enable-background:new 0 0 141.7 141.7;" xml:space="preserve">
<style type="text/css">
	.st0{fill:#3D4543;}
	.st1{fill:#789C4A;}
</style>
<path id="Path_30" class="st0" d="M92.1,60.7H73.9V50.2c0-0.5-0.4-1-1-1H50c-0.5,0-1,0.4-1,1v47.1c0,0.5,0.4,1,1,1h42.1
	c0.5,0,1-0.4,1-1V61.7C93.1,61.2,92.6,60.7,92.1,60.7C92.1,60.7,92.1,60.7,92.1,60.7z M73.9,62.6h17.2v24.1H73.9V62.6z M58.6,96.3
	v-7.7h5.7v7.7H58.6z M65.3,86.8h-7.7c-0.5,0-1,0.4-1,1v8.6h-5.7V51.2H72v45.2h-5.7v-8.6C66.3,87.2,65.8,86.8,65.3,86.8
	C65.3,86.8,65.3,86.8,65.3,86.8z M73.9,96.3v-7.7h17.2v7.7H73.9z"/>
<path id="Path_31" class="st1" d="M60.5,56.9h1.9c0.5,0,1-0.4,1-1V54c0-0.5-0.4-1-1-1h-1.9c-0.5,0-1,0.4-1,1v1.9
	C59.6,56.5,60,56.9,60.5,56.9C60.5,56.9,60.5,56.9,60.5,56.9z"/>
<path id="Path_32" class="st1" d="M60.5,63.6h1.9c0.5,0,1-0.4,1-1v-1.9c0-0.5-0.4-1-1-1h-1.9c-0.5,0-1,0.4-1,1v1.9
	C59.6,63.2,60,63.6,60.5,63.6C60.5,63.6,60.5,63.6,60.5,63.6z"/>
<path id="Path_33" class="st1" d="M60.5,70.3h1.9c0.5,0,1-0.4,1-1v-1.9c0-0.5-0.4-1-1-1h-1.9c-0.5,0-1,0.4-1,1v1.9
	C59.6,69.9,60,70.3,60.5,70.3C60.5,70.3,60.5,70.3,60.5,70.3z"/>
<path id="Path_34" class="st1" d="M60.5,77h1.9c0.5,0,1-0.4,1-1v-1.9c0-0.5-0.4-1-1-1h-1.9c-0.5,0-1,0.4-1,1V76
	C59.6,76.6,60,77,60.5,77C60.5,77,60.5,77,60.5,77z"/>
<path id="Path_35" class="st1" d="M60.5,83.7h1.9c0.5,0,1-0.4,1-1v-1.9c0-0.5-0.4-1-1-1h-1.9c-0.5,0-1,0.4-1,1v1.9
	C59.6,83.3,60,83.7,60.5,83.7C60.5,83.7,60.5,83.7,60.5,83.7z"/>
<path id="Path_36" class="st1" d="M53.8,56.9h1.9c0.5,0,1-0.4,1-1V54c0-0.5-0.4-1-1-1h-1.9c-0.5,0-1,0.4-1,1v1.9
	C52.9,56.5,53.3,56.9,53.8,56.9C53.8,56.9,53.8,56.9,53.8,56.9z"/>
<path id="Path_37" class="st1" d="M53.8,63.6h1.9c0.5,0,1-0.4,1-1v-1.9c0-0.5-0.4-1-1-1h-1.9c-0.5,0-1,0.4-1,1v1.9
	C52.9,63.2,53.3,63.6,53.8,63.6C53.8,63.6,53.8,63.6,53.8,63.6z"/>
<path id="Path_38" class="st1" d="M53.8,70.3h1.9c0.5,0,1-0.4,1-1v-1.9c0-0.5-0.4-1-1-1h-1.9c-0.5,0-1,0.4-1,1v1.9
	C52.9,69.9,53.3,70.3,53.8,70.3C53.8,70.3,53.8,70.3,53.8,70.3z"/>
<path id="Path_39" class="st1" d="M53.8,77h1.9c0.5,0,1-0.4,1-1v-1.9c0-0.5-0.4-1-1-1h-1.9c-0.5,0-1,0.4-1,1V76
	C52.9,76.6,53.3,77,53.8,77C53.8,77,53.8,77,53.8,77z"/>
<path id="Path_40" class="st1" d="M53.8,83.7h1.9c0.5,0,1-0.4,1-1v-1.9c0-0.5-0.4-1-1-1h-1.9c-0.5,0-1,0.4-1,1v1.9
	C52.9,83.3,53.3,83.7,53.8,83.7C53.8,83.7,53.8,83.7,53.8,83.7z"/>
<path id="Path_41" class="st1" d="M69.1,53.1h-1.9c-0.5,0-1,0.4-1,1v1.9c0,0.5,0.4,1,1,1h1.9c0.5,0,1-0.4,1-1V54
	C70.1,53.5,69.7,53.1,69.1,53.1C69.1,53.1,69.1,53.1,69.1,53.1z"/>
<path id="Path_42" class="st1" d="M69.1,59.8h-1.9c-0.5,0-1,0.4-1,1v1.9c0,0.5,0.4,1,1,1h1.9c0.5,0,1-0.4,1-1v-1.9
	C70.1,60.2,69.7,59.8,69.1,59.8C69.1,59.8,69.1,59.8,69.1,59.8z"/>
<path id="Path_43" class="st1" d="M69.1,66.5h-1.9c-0.5,0-1,0.4-1,1v1.9c0,0.5,0.4,1,1,1h1.9c0.5,0,1-0.4,1-1v-1.9
	C70.1,66.9,69.7,66.5,69.1,66.5C69.1,66.5,69.1,66.5,69.1,66.5z"/>
<path id="Path_44" class="st1" d="M69.1,73.2h-1.9c-0.5,0-1,0.4-1,1V76c0,0.5,0.4,1,1,1h1.9c0.5,0,1-0.4,1-1v-1.9
	C70.1,73.6,69.7,73.2,69.1,73.2C69.1,73.2,69.1,73.2,69.1,73.2z"/>
<path id="Path_45" class="st1" d="M69.1,79.9h-1.9c-0.5,0-1,0.4-1,1v1.9c0,0.5,0.4,1,1,1h1.9c0.5,0,1-0.4,1-1v-1.9
	C70.1,80.3,69.7,79.9,69.1,79.9C69.1,79.9,69.1,79.9,69.1,79.9z"/>
<path id="Path_46" class="st1" d="M86.8,66.5h-1.9c-0.5,0-1,0.4-1,1v1.9c0,0.5,0.4,1,1,1h1.9c0.5,0,1-0.4,1-1v-1.9
	C87.8,66.9,87.4,66.5,86.8,66.5C86.8,66.5,86.8,66.5,86.8,66.5z"/>
<path id="Path_47" class="st1" d="M86.8,73.2h-1.9c-0.5,0-1,0.4-1,1V76c0,0.5,0.4,1,1,1h1.9c0.5,0,1-0.4,1-1v-1.9
	C87.8,73.6,87.4,73.2,86.8,73.2C86.8,73.2,86.8,73.2,86.8,73.2z"/>
<path id="Path_48" class="st1" d="M86.8,79.9h-1.9c-0.5,0-1,0.4-1,1v1.9c0,0.5,0.4,1,1,1h1.9c0.5,0,1-0.4,1-1v-1.9
	C87.8,80.3,87.4,79.9,86.8,79.9C86.8,79.9,86.8,79.9,86.8,79.9z"/>
<path id="Path_49" class="st1" d="M80.1,66.5h-1.9c-0.5,0-1,0.4-1,1v1.9c0,0.5,0.4,1,1,1h1.9c0.5,0,1-0.4,1-1v-1.9
	C81.1,66.9,80.7,66.5,80.1,66.5C80.1,66.5,80.1,66.5,80.1,66.5z"/>
<path id="Path_50" class="st1" d="M80.1,73.2h-1.9c-0.5,0-1,0.4-1,1V76c0,0.5,0.4,1,1,1h1.9c0.5,0,1-0.4,1-1v-1.9
	C81.1,73.6,80.7,73.2,80.1,73.2C80.1,73.2,80.1,73.2,80.1,73.2z"/>
<path id="Path_51" class="st1" d="M80.1,79.9h-1.9c-0.5,0-1,0.4-1,1v1.9c0,0.5,0.4,1,1,1h1.9c0.5,0,1-0.4,1-1v-1.9
	C81.1,80.3,80.7,79.9,80.1,79.9C80.1,79.9,80.1,79.9,80.1,79.9z"/>
</svg>
