<?xml version="1.0" encoding="utf-8"?>
<!-- Generator: Adobe Illustrator 24.3.0, SVG Export Plug-In . SVG Version: 6.00 Build 0)  -->
<svg version="1.1" id="Warstwa_1" xmlns="http://www.w3.org/2000/svg" xmlns:xlink="http://www.w3.org/1999/xlink" x="0px" y="0px"
	 viewBox="0 0 141.7 141.7" style="enable-background:new 0 0 141.7 141.7;" xml:space="preserve">
<style type="text/css">
	.st0{fill:#6E8A37;}
	.st1{fill:#2F3634;}
</style>
<g id="Group_119" transform="translate(-3483.065 849.64)">
	<path id="Path_102" class="st0" d="M3569.3-783.7c-0.9-0.6-1.9-0.9-2.9-0.9h-6.1v-6.1c0-2.8-2.2-5.1-4.9-5.2c0,0-0.1,0-0.1,0h-5.2
		c-2.9,0-5.3,2.4-5.3,5.3v6.1h-6.1c-2.9,0-5.3,2.4-5.3,5.3v5c0,2.9,2.4,5.3,5.3,5.3h6.1v6.1c0,2.8,2.2,5.1,4.9,5.2c0,0,0.1,0,0.1,0
		h5.2c2.9,0,5.3-2.4,5.3-5.3v-6.1h6.1c2.9,0,5.3-2.4,5.3-5.3v-5C3571.6-781.1,3570.8-782.7,3569.3-783.7z M3568.1-774.2
		C3568.1-774.2,3568.1-774.2,3568.1-774.2l0,0.2c-0.1,0.9-0.9,1.5-1.8,1.5h-8c-0.4,0-0.8,0.2-1.1,0.5l0,0c-0.3,0.3-0.5,0.7-0.5,1.2
		v8.1c0,0,0,0.1,0,0.1v0c0,0,0,0.1,0,0.1c0,0,0,0.1,0,0.1l0,0c0,0,0,0.1,0,0.1v0c0,0,0,0.1,0,0.1l0,0c0,0,0,0.1,0,0.1l0,0
		c0,0,0,0,0,0.1l-0.1,0.1c-0.2,0.4-0.6,0.7-1.1,0.8l-0.1,0l0,0l-0.1,0h0l-0.1,0h-5.1c-1,0-1.8-0.8-1.8-1.8v-8c0-0.9-0.7-1.6-1.6-1.6
		h-8c-0.3,0-0.7-0.1-0.9-0.3c-0.5-0.3-0.8-0.8-0.8-1.4v-5.2c0,0,0-0.1,0-0.1l0-0.1c0.1-0.9,0.9-1.5,1.8-1.5h8c0.9,0,1.6-0.7,1.6-1.6
		v-8.1c0,0,0-0.1,0-0.1v0c0,0,0-0.1,0-0.1c0,0,0-0.1,0-0.1l0,0c0,0,0-0.1,0-0.1l0-0.1c0,0,0-0.1,0-0.1l0,0c0,0,0,0,0-0.1l0.1-0.1
		c0.2-0.4,0.6-0.7,1-0.8l0.1,0l0,0l0.1,0h0l0.1,0h5.1c1,0,1.8,0.8,1.8,1.8v8c0,0.9,0.7,1.6,1.6,1.6h8c0.3,0,0.7,0.1,0.9,0.3
		c0.5,0.3,0.8,0.8,0.8,1.4v5.1C3568.2-774.3,3568.1-774.3,3568.1-774.2L3568.1-774.2z"/>
	<path id="Path_154" class="st1" d="M3593.8-810c-0.7,0-1.4,0-2,0c-1.6,0-3.1,0-4.6,0c-1.9,0-3.5,1.3-4,3.1
		c-0.1,0.2-0.3,0.4-0.5,0.5c-1.4,0.8-3.1,0.8-4.5-0.1c-2.1-1.2-4.3-2.6-6.5-4l-0.2-0.1c-2-1.5-4.2-2.6-6.6-3.4
		c-0.8-0.2-1.6-0.4-2.4-0.5c-0.4-0.1-0.7-0.1-1.1-0.2l-3.7,0h-0.1c-0.2,0-0.3,0.1-0.5,0.1c-0.4,0.1-0.8,0.1-1.1,0.2
		c-1.3,0.3-2.6,0.6-3.9,0.9c-4.2,0.9-8.5,1.9-12.7,2.9c-1.4,0.4-2.8,1-4.1,1.8c-1.5,0.8-2.2,2.6-1.6,4.3c0.6,1.5,2.1,2.5,3.7,2.4h0
		c0.9,0,1.9-0.1,2.8-0.1l0.7,0l0.4,0c4.2-0.2,8.6-0.5,12.9-0.8c0.9,0,1.7-0.7,1.7-1.6c0,0,0-0.1,0-0.1c-0.1-1-0.9-1.7-1.9-1.6
		c0,0-0.1,0-0.1,0c-1.1,0.1-2.2,0.1-3.3,0.2c-1,0.1-1.9,0.1-2.9,0.2l-1.7,0.1c-2.7,0.2-5.6,0.3-8.4,0.5c-0.2,0-0.5-0.1-0.7-0.2l0,0
		l0,0c0.1-0.2,0.3-0.4,0.5-0.6c0.9-0.5,1.8-0.9,2.8-1.1c0.9-0.2,1.8-0.4,2.6-0.6c4.4-1,8.9-2.1,13.4-3c3.9-0.9,8-0.1,11.4,2.1
		c0.6,0.4,1.3,0.9,1.9,1.3c1.4,0.9,2.8,1.9,4.3,2.8l0.3,0.2c2.6,1.6,5.4,3.2,8.7,1.9v7.3c-0.8,0.1-1.5,0.2-2.2,0.3
		c-1.9,0.3-3.9,0.5-5.8,0.7c-2.2,0.1-4.4-0.4-6.2-1.7c-2.3-1.5-4.6-3.2-6.8-4.8l-1-0.8c-0.4-0.3-0.8-0.7-1.1-1.2
		c-0.1-0.1-0.1-0.2-0.1-0.4c0.1,0,0.2,0,0.3,0c0.7,0.1,1.4,0.3,2.1,0.6c1.4,0.6,2.8,1.2,4.1,1.8c0.8,0.4,1.6,0.7,2.4,1.1
		c0.5,0.2,1,0.2,1.4,0.1c0.4-0.2,0.7-0.5,0.9-0.9c0.4-0.8,0-1.8-0.9-2.2c0,0-0.1,0-0.1,0c-0.4-0.2-0.9-0.4-1.3-0.6
		c-1.7-0.8-3.5-1.6-5.2-2.3c-1.2-0.5-2.4-0.8-3.7-0.9c-1.2-0.1-2.3,0.4-3,1.4c-0.7,1.1-0.7,2.4-0.2,3.5c0.7,1.3,1.7,2.4,2.9,3.2
		c2.3,1.7,4.5,3.2,6.5,4.6c3.2,2.3,7.2,3.2,11.1,2.6c1.5-0.2,3-0.4,4.5-0.7c0.6-0.1,1.2-0.2,1.8-0.3c0.6,1.3,1.8,2.1,3.2,2.2
		c1,0,2,0.1,2.9,0.1c0.7,0,1.4,0,2.1,0s1.4,0,2.1,0h0.3V-810L3593.8-810z M3587-793.4c-0.4,0-0.6-0.4-0.6-0.8c0-3.5,0-7.6,0-11.7
		c0-0.4,0.3-0.8,0.7-0.8c0,0,0.1,0,0.1,0c0.5,0,1.1,0,1.6,0c0.4,0,0.8,0,1.2,0h0.9v13.3l-0.9,0C3589-793.4,3587.9-793.4,3587-793.4z
		"/>
	<path id="Path_155" class="st1" d="M3514.4-741.8c0.7,0,1.4,0,2,0c1.6,0,3.1,0,4.6,0c1.9,0,3.5-1.3,4-3.1c0.1-0.2,0.3-0.4,0.5-0.5
		c1.4-0.8,3.1-0.8,4.5,0.1c2.1,1.2,4.3,2.6,6.5,4l0.2,0.1c2,1.5,4.2,2.6,6.6,3.4c0.8,0.2,1.6,0.4,2.4,0.5c0.4,0.1,0.7,0.1,1.1,0.2
		l3.7,0h0.1c0.2,0,0.3-0.1,0.5-0.1c0.4-0.1,0.8-0.1,1.1-0.2c1.3-0.3,2.6-0.6,3.9-0.9c4.2-0.9,8.5-1.9,12.7-2.9
		c1.4-0.4,2.8-1,4.1-1.8c1.5-0.8,2.2-2.6,1.6-4.3c-0.6-1.5-2.1-2.5-3.7-2.4h0c-0.9,0-1.9,0.1-2.8,0.1l-0.7,0l-0.4,0
		c-4.2,0.2-8.6,0.5-12.9,0.8c-0.9,0-1.7,0.7-1.7,1.6c0,0,0,0.1,0,0.1c0.1,1,0.9,1.7,1.9,1.6c0,0,0.1,0,0.1,0
		c1.1-0.1,2.2-0.1,3.3-0.2c1-0.1,1.9-0.1,2.9-0.2l1.7-0.1c2.7-0.2,5.6-0.3,8.4-0.5c0.2,0,0.5,0.1,0.7,0.2l0,0l0,0
		c-0.1,0.2-0.3,0.4-0.5,0.6c-0.9,0.5-1.8,0.9-2.8,1.1l-2.6,0.6c-4.4,1-8.9,2.1-13.4,3c-3.9,0.9-8,0.1-11.4-2.1
		c-0.6-0.4-1.3-0.9-1.9-1.3c-1.4-0.9-2.8-1.9-4.3-2.8l-0.3-0.2c-2.6-1.6-5.4-3.2-8.7-1.9v-7.3c0.8-0.1,1.5-0.2,2.2-0.3
		c1.9-0.3,3.9-0.5,5.8-0.7c2.2-0.1,4.4,0.4,6.2,1.7c2.3,1.5,4.6,3.2,6.8,4.8l1,0.8c0.4,0.3,0.8,0.7,1.1,1.2c0.1,0.1,0.1,0.2,0.1,0.4
		c-0.1,0-0.2,0-0.3,0c-0.7-0.1-1.4-0.3-2.1-0.6c-1.4-0.6-2.8-1.2-4.1-1.8c-0.8-0.4-1.6-0.7-2.4-1.1c-0.5-0.2-1-0.2-1.4-0.1
		c-0.4,0.2-0.7,0.5-0.9,0.9c-0.4,0.8,0,1.8,0.9,2.2c0,0,0.1,0,0.1,0c0.4,0.2,0.9,0.4,1.3,0.6c1.7,0.8,3.5,1.6,5.2,2.3
		c1.2,0.5,2.4,0.8,3.7,0.9c1.2,0.1,2.3-0.4,3-1.4c0.7-1.1,0.7-2.4,0.2-3.5c-0.7-1.3-1.7-2.4-2.9-3.2c-2.3-1.7-4.5-3.2-6.5-4.6
		c-3.2-2.3-7.2-3.2-11.1-2.6c-1.5,0.2-3,0.4-4.5,0.7c-0.6,0.1-1.2,0.2-1.8,0.3c-0.6-1.3-1.8-2.1-3.2-2.2c-1,0-2-0.1-2.9-0.1
		c-0.7,0-1.4,0-2.1,0s-1.4,0-2.1,0h-0.3v19.9L3514.4-741.8z M3521.3-758.4c0.4,0,0.6,0.4,0.6,0.8c0,3.5,0,7.6,0,11.7
		c0,0.4-0.3,0.8-0.7,0.8c0,0-0.1,0-0.1,0c-0.5,0-1.1,0-1.6,0c-0.4,0-0.8,0-1.2,0h-0.9v-13.3l0.9,0
		C3519.3-758.4,3520.3-758.4,3521.3-758.4L3521.3-758.4z"/>
</g>
</svg>
