<?xml version="1.0" encoding="utf-8"?>
<!-- Generator: Adobe Illustrator 24.3.0, SVG Export Plug-In . SVG Version: 6.00 Build 0)  -->
<svg version="1.1" id="Warstwa_1" xmlns="http://www.w3.org/2000/svg" xmlns:xlink="http://www.w3.org/1999/xlink" x="0px" y="0px"
	 viewBox="0 0 214.2 94.1" style="enable-background:new 0 0 214.2 94.1;" xml:space="preserve">
<style type="text/css">
	.st0{fill:#652982;}
</style>
<polygon class="st0" points="51.2,73.6 51.2,17.7 43.8,17.7 43.8,42.5 31.2,42.5 31.2,17.7 23.9,17.7 23.9,73.6 31.2,73.6 
	31.2,48.8 43.8,48.8 43.8,73.6 "/>
<path class="st0" d="M79,63.1l1.6,10.5h7.3l-9.2-55.9H66.9l-9.2,55.9h6.5l1.6-10.5H79z M72.4,24.2l5.7,33H66.7L72.4,24.2z"/>
<polygon class="st0" points="116.1,73.6 123.8,73.6 113.7,44.8 123.1,17.7 116.6,17.7 108.7,41.3 100.9,17.7 93.5,17.7 102.8,44.8 
	92.8,73.6 99.3,73.6 107.8,48.5 "/>
<path class="st0" d="M155.1,30.6c0-8.7-4.7-13.5-13.1-13.5s-13.1,4.8-13.1,13.5v30.1c0,8.7,4.7,13.5,13.1,13.5s13.1-4.8,13.1-13.5
	V30.6z M147.8,61.3c0,5.5-3.2,6.7-5.8,6.7s-5.8-1.2-5.8-6.7V30c0-5.5,3.2-6.7,5.8-6.7s5.8,1.2,5.8,6.7V61.3z"/>
<polygon class="st0" points="190.5,73.6 190.5,17.7 184.3,17.7 184.3,58.9 172.9,17.7 163,17.7 163,73.6 169.4,73.6 169.4,25.1 
	182.8,73.6 "/>
</svg>
