<?xml version="1.0" encoding="utf-8"?>
<!-- Generator: Adobe Illustrator 24.3.0, SVG Export Plug-In . SVG Version: 6.00 Build 0)  -->
<svg version="1.1" id="Warstwa_1" xmlns="http://www.w3.org/2000/svg" xmlns:xlink="http://www.w3.org/1999/xlink" x="0px" y="0px"
	 viewBox="0 0 141.7 141.7" style="enable-background:new 0 0 141.7 141.7;" xml:space="preserve">
<style type="text/css">
	.st0{fill:#2F3634;}
	.st1{fill-rule:evenodd;clip-rule:evenodd;fill:#2F3634;}
	.st2{fill:#6E8A37;}
</style>
<g id="Group_115" transform="translate(-2050.533 -138.842)">
	<path id="Path_131" class="st0" d="M2133.6,195.9c0.1-1.2-0.7-2.4-1.9-2.8c0-0.5,0.1-1,0.1-1.5c0.1-1.4,0.2-2.8,0.2-4.2
		c0.1-2.5-0.4-4.9-1.6-7.1c-2-3.4-5.1-5.5-9.6-6.5c-0.5-0.1-1.1-0.2-1.6-0.3c-0.2,0-0.5-0.1-0.7-0.1l-3.5,0l-0.1,0
		c-0.1,0-0.1,0-0.2,0c-0.1,0-0.2,0.1-0.3,0.1c-2.1,0.2-4.1,0.8-6,1.8c-3.1,1.5-5.4,4.2-6.4,7.4c-0.6,2.4-0.8,4.9-0.5,7.4
		c0.1,0.8,0.2,1.6,0.2,2.4c0,0.2,0,0.4,0.1,0.6c-1.2,0.3-1.9,1.4-1.9,2.6c-0.2,2.1,0.4,4.2,1.8,5.9c0.6,0.8,1.1,1.6,1.5,2.5
		c0.1,0.1,0.1,0.3,0.2,0.4c1.3,2.8,3.1,5.4,5.4,7.6c2.1,2,4.9,3.1,7.8,3.1c0.6,0,1.1,0,1.7-0.1c2.8-0.4,5.3-1.8,7.2-3.9
		c2.2-2.5,4-5.3,5.3-8.3c0.1-0.2,0.2-0.4,0.3-0.5C2132.9,200.6,2133.7,198.3,2133.6,195.9z M2106.1,197.1c-0.1-0.5-0.2-1-0.3-1.5
		c-0.2-1.1-0.4-2.1-0.5-3.2c-0.1-0.8-0.1-1.7-0.2-2.6c0-0.3,0-0.7,0-1c0,0,0-0.1,0-0.1l0,0c1.3-2.7,2.7-4.2,4.9-4.7
		c0.4-0.1,0.5-0.1,0.6,0.1c3.3,3.3,7.6,5.5,12.3,6.1c1.2,0.2,2.4,0.3,3.6,0.4c0.5,0,1.1,0.1,1.6,0.1c0.1,0,0.3,0,0.4,0
		c-0.3,2.1-0.7,4.2-1,6.3l-0.5,3.4l1.5-3.1c0.1-0.2,0.2-0.4,0.3-0.6c0.2-0.4,0.4-0.8,0.6-1.2l0-0.1c0.3-0.5,0.4-0.6,0.5-0.5
		c0.4,0.1,0.5,0.6,0.5,0.8c0.1,1.5-0.4,3-1.4,4.2c-0.4,0.4-0.7,0.9-0.9,1.4c-0.1,0.2-0.2,0.5-0.3,0.7c-0.9,2.1-2,4.1-3.3,6.1
		c-2.8,3.9-8,5.1-12.2,2.9c-1.9-1.1-3.3-2.7-4.3-4.6c-0.6-1.1-1.1-2.2-1.7-3.3c-0.3-0.6-0.6-1.2-0.9-1.9c-0.2-0.4-0.5-0.8-0.8-1.1
		c-1.1-1.1-1.7-2.7-1.6-4.2c0-0.1,0-0.3,0.1-0.4c0.1-0.3,0.3-0.5,0.4-0.5h0c0.1,0,0.2,0.1,0.4,0.4c0.3,0.4,0.5,0.9,0.8,1.4
		c0.1,0.2,0.2,0.5,0.3,0.7l1.6,3L2106.1,197.1z"/>
	<path id="Path_132" class="st1" d="M2116.7,230.5c-1.4-0.8-2.6-1.9-3.5-3.2c-0.1-0.2-0.1-0.5-0.1-0.7c0.7-1.8,1.5-3.5,2.3-5.2
		c0.1-0.3,0.1-0.4-0.2-0.7c-0.7-0.7-1.4-1.4-2-2.1c-0.1-0.2-0.1-0.4,0-0.5c0.5-0.5,0.9-0.9,1.4-1.3c0.2-0.1,0.3-0.1,0.5-0.1
		c0.9,0,1.8,0,2.6,0c0.6-0.1,1.3,0.2,1.7,0.7c1.2,1.2,1.2,0.9,0.1,2.2c-0.5,0.6-1.1,1.1-1.7,1.7c0.5,1.2,1,2.4,1.6,3.7
		c0.2,0.6,0.5,1.2,0.8,1.8c0.1,0.3,0.1,0.6-0.1,0.8C2119.3,228.6,2118.1,229.7,2116.7,230.5z"/>
	<path id="Path_133" class="st0" d="M2135.4,217.9L2135.4,217.9L2135.4,217.9c-0.2-0.1-0.3-0.1-0.4-0.1c-0.7-0.2-1.4-0.4-2.5-0.7
		s-2.1-0.6-3.1-1c-0.6-0.2-1.1-0.4-1.7-0.5l-2.7-0.9l0.3,2.6c0,0.2,0,0.3,0,0.4s0,0.2,0,0.3c0.3,1.6,0.1,3.3-0.4,4.8
		c-1.7,4.2-4.5,7.9-8.1,10.6c-3.3-2.5-5.9-5.8-7.7-9.5c-0.7-1.5-1.1-3.2-1-4.8c0-0.4,0-0.8,0.1-1.2c0-0.2,0-0.4,0-0.6l0.2-2.4
		l-2.3,0.7c-0.8,0.2-1.6,0.5-2.4,0.7c-1.8,0.5-3.7,1.1-5.6,1.7c-2.3,0.8-4.6,1.6-6.9,2.7c-1.5,0.7-2.9,1.7-3.9,3
		c-1.4,1.9-2.3,4.1-2.6,6.4c0,0.2-0.1,0.5-0.1,0.7c0,0.1,0,0.3-0.1,0.4l0,0.1v4.9v0.1c0.1,0.9,0.5,1.8,1.1,2.5
		c0.7,0.8,2.5,2.3,3.7,2.3h0.1h34.6c0,0,0.1,0,0.1,0c0.9-0.1,1.6-0.9,1.6-1.8c-0.1-0.8-0.7-1.5-1.6-1.6h0l0,0h-34.4
		c-0.6-0.3-1.1-0.7-1.6-1.2c-0.1-0.2-0.2-0.4-0.3-0.6v-4.6c0-0.1,0-0.2,0-0.2c0-0.3,0.1-0.5,0.1-0.8c0.2-1.7,0.9-3.4,1.9-4.8
		c0.7-0.9,1.6-1.6,2.7-2c2.1-1,4.3-1.8,6.5-2.5c1.8-0.6,3.6-1.1,5.4-1.6l0.1,0c0,2.1,0.4,4.1,1.3,5.9c2,4.4,5.2,8.1,9.1,11
		c1,0.7,2.3,0.7,3.3,0c4.3-3.1,7.6-7.3,9.6-12.2c0.6-1.5,0.9-3.1,0.8-4.7c0.9,0.3,1.8,0.6,2.7,0.8c1,0.3,1.7,0.5,2.4,0.7
		c0.8,0.4,1.9,0.1,2.3-0.7c0.4-0.8,0.1-1.9-0.7-2.3C2135.5,217.9,2135.5,217.9,2135.4,217.9L2135.4,217.9z"/>
	<g id="Group_114" transform="translate(2094.624 187.261)">
		<path id="Path_134" class="st2" d="M64,45.5l-4-7l-6.9,4v-8h-8v8l-6.9-4l-4,7l6.9,4l-6.9,4l4,7l6.9-4v8h8v-8l6.9,4l4-7l-6.9-4
			L64,45.5z"/>
		<g id="Group_113" transform="translate(11.908 4.064)">
			<path id="Path_135" class="st0" d="M37.4,48.2l-0.7,0.4l0.1,4.8l0.5-0.3L37.4,48.2z"/>
			<path id="Path_136" class="st0" d="M36.4,36.8V38c0.2,0,0.3-0.1,0.5-0.1c0.2,0,0.5,0,0.7,0v-1.1c0.3-0.2,0.5-0.6,0.5-1
				c0-0.6-0.4-1.2-1.1-1.2c-0.6,0-1.2,0.5-1.2,1.1c0,0,0,0.1,0,0.1C35.9,36.2,36.1,36.5,36.4,36.8z"/>
			<path id="Path_137" class="st0" d="M40.6,39.4c-0.2-0.4-0.5-0.8-0.8-1c-0.3-0.3-0.7-0.4-1.1-0.3c-0.1,0-0.2,0-0.3,0
				c-0.5,0-1,0-1.5,0c-0.6,0-1.2,0.3-1.7,0.6c-0.8,0.6-1.3,1.6-1.1,2.6c0.2,1.1,1,2.1,2.2,2.5l0-1.4c-0.2-0.2-0.5-0.4-0.7-0.6
				c-0.4-0.6-0.3-1.4,0.3-1.8c0,0,0.1,0,0.1-0.1c0.1-0.1,0.2-0.1,0.3-0.1c0.5-0.2,1-0.3,1.6-0.2c0.1,0,0.1,0,0.1,0.1
				c0.1,0.1,0.2,0.2,0.4,0.3c0.6,0.2,1.3,0.3,2,0.2C40.6,39.9,40.7,39.8,40.6,39.4z M39.5,39.1c-0.1,0-0.2-0.1-0.2-0.2
				c0-0.1,0.1-0.2,0.2-0.2s0.2,0.1,0.2,0.2c0,0,0,0,0,0C39.7,39,39.6,39.1,39.5,39.1C39.5,39.1,39.5,39.1,39.5,39.1L39.5,39.1z"/>
			<path id="Path_138" class="st0" d="M37.6,39.8c-0.4,0-0.8,0.1-1.2,0.2l0.2,6.9l0.9-0.5L37.6,39.8z"/>
			<path id="Path_139" class="st0" d="M37.8,43.3l0,1.4c0.2,0.1,0.4,0.2,0.5,0.4c0.2,0.3,0.2,0.7,0,1c-0.1,0.2-0.3,0.4-0.5,0.5
				c-0.3,0.2-0.5,0.3-0.8,0.5c-0.4,0.2-0.7,0.4-1.1,0.6c-0.3,0.2-0.6,0.4-0.8,0.7c-0.4,0.5-0.4,1.2-0.1,1.7c0.3,0.5,0.8,0.8,1.4,1
				l0-0.9c0,0,0,0-0.1-0.1c-0.1,0-0.1-0.1-0.2-0.1c-0.1-0.1-0.2-0.1-0.2-0.2c-0.2-0.2-0.2-0.6,0-0.8c0-0.1,0.1-0.1,0.2-0.2
				c0.2-0.1,0.4-0.3,0.6-0.4c0.4-0.2,0.9-0.4,1.3-0.6c0.4-0.2,0.7-0.4,1-0.7c0.5-0.5,0.6-1.2,0.5-1.8C39.1,44.2,38.5,43.6,37.8,43.3
				z"/>
			<path id="Path_140" class="st0" d="M37.6,50.6l0,0.9c0.1,0.1,0.3,0.2,0.4,0.3c0.3,0.2,0.4,0.7,0.2,1.1C38.1,52.9,38,53,37.9,53
				c0,0-0.1,0-0.1,0.1c-0.2,0.1-0.4,0.2-0.6,0.3c-0.4,0.2-0.8,0.4-1.2,0.7c-0.2,0.2-0.4,0.4-0.4,0.7c-0.1,0.2-0.1,0.4,0,0.5
				c0.1-0.2,0.2-0.4,0.3-0.5c0.2-0.2,0.4-0.4,0.7-0.5c0.3-0.2,0.6-0.3,0.9-0.4c0.3-0.1,0.6-0.3,0.9-0.5c0.5-0.4,0.6-1.1,0.4-1.6
				C38.6,51.3,38.1,50.8,37.6,50.6z"/>
			<path id="Path_141" class="st0" d="M36.8,56.1L36.8,56.1c0,0.1,0,0.3,0,0.4c0,0.1,0,0.1,0,0.2c0,0.1,0.1,0.1,0.2,0.1
				c0.1,0,0.1,0,0.2-0.1c0-0.1,0-0.1,0-0.2c0-0.3,0-0.6,0-0.9c0,0,0,0,0,0c0,0,0-1.2,0-1.2l-0.4,0.2L36.8,56.1z"/>
		</g>
	</g>
</g>
</svg>
