<?xml version="1.0" encoding="utf-8"?>
<!-- Generator: Adobe Illustrator 24.3.0, SVG Export Plug-In . SVG Version: 6.00 Build 0)  -->
<svg version="1.1" id="Warstwa_1" xmlns="http://www.w3.org/2000/svg" xmlns:xlink="http://www.w3.org/1999/xlink" x="0px" y="0px"
	 viewBox="0 0 141.7 141.7" style="enable-background:new 0 0 141.7 141.7;" xml:space="preserve">
<style type="text/css">
	.st0{fill:#789C4A;}
	.st1{fill:#3D4543;}
</style>
<polygon class="st0" points="129.4,55.1 113.7,27.8 86.5,43.5 86.5,12.1 55,12.1 55,43.5 27.8,27.8 12,55.1 39.2,70.8 12,86.5 
	27.8,113.8 55,98.1 55,129.5 86.5,129.5 86.5,98.1 113.7,113.8 129.4,86.5 102.3,70.8 "/>
<g>
	<polygon class="st1" points="71.8,81.4 69,82.8 69.3,101.6 71.4,100.6 	"/>
	<path class="st1" d="M68,36.6c0,1.6,0,3.1,0,4.7c0.6-0.1,1.3-0.2,1.9-0.3c1-0.1,1.9-0.1,2.9-0.1c0-1.4,0-2.8,0-4.3
		c1.2-0.8,2-2.3,2-3.9c0-2.6-2-4.7-4.4-4.7c-2.5,0-4.5,2.1-4.5,4.7C65.9,34.4,66.8,35.8,68,36.6z"/>
	<path class="st1" d="M84.3,47.2c-0.8-1.6-1.9-3-3.2-4.1c-1.3-1.1-2.7-1.4-4.3-1.1c-0.4,0.1-0.8,0.1-1.2,0.1c-1.9,0.1-3.9,0-5.8,0.2
		c-2.4,0.2-4.7,0.9-6.8,2.3c-3.2,2.2-4.9,6.1-4.3,10.1c0.9,5.1,4.3,7.7,8.5,9.6l-0.2-5.6c0,0-1.6-1.2-2.6-2.4
		c-1.7-2.6-1-5.9,1.7-7.5c0.4-0.2,0.7-0.4,1.1-0.5c2-0.8,4.1-1,6.2-1c0.2,0,0.4,0.2,0.5,0.3c0.5,0.4,0.9,0.9,1.5,1.1
		c2.5,0.9,5.1,1.2,7.7,0.7C84.7,49.1,85,48.5,84.3,47.2z M80,45.9c-0.4,0-0.8-0.4-0.8-0.8s0.4-0.8,0.8-0.8c0.4,0,0.8,0.4,0.8,0.8
		S80.4,45.9,80,45.9z"/>
	<path class="st1" d="M72.6,48.5c-1.5,0-3.1,0.2-4.5,0.7l0.7,27.1l3.3-1.8L72.6,48.5z"/>
	<path class="st1" d="M73.4,62.1l-0.1,5.4c0,0,0.9,0.2,2,1.5c0.7,1.1,0.9,2.5,0,3.9c-0.5,0.7-1.1,1.4-1.8,1.9
		c-1,0.7-2.2,1.3-3.2,1.9c-1.4,0.8-2.8,1.4-4.2,2.2c-1.2,0.7-2.2,1.6-3,2.7c-1.5,2.1-1.7,4.7-0.4,6.7c1.3,2,3.3,2.9,5.3,3.8L68,88.3
		c0,0-0.1-0.1-0.4-0.2c-0.2-0.2-0.5-0.3-0.7-0.5c-0.3-0.2-0.7-0.5-1-0.8c-0.8-0.9-0.8-2,0.1-3.1c0.2-0.2,0.4-0.5,0.6-0.7
		c0.8-0.5,1.5-1.1,2.4-1.5c1.6-0.9,3.3-1.6,5-2.4c1.5-0.7,2.8-1.6,3.9-2.9c1.8-2.1,2.6-4.5,1.9-7.2C78.9,65.5,76.2,63.6,73.4,62.1z"
		/>
	<path class="st1" d="M72.7,90.9l-0.1,3.4c0,0,0.3,0.1,1.5,1.1c1.8,1.7,1.7,3.6-0.3,5.1c-0.1,0.1-0.2,0.2-0.3,0.2
		c-0.8,0.4-1.6,0.8-2.4,1.2c-1.6,0.8-3.3,1.7-4.7,2.9c-0.8,0.7-1.4,1.5-1.7,2.6c-0.2,0.7-0.2,1.4,0,2.1c0.4-0.9,0.8-1.4,1.3-1.9
		c0.8-0.7,1.7-1.4,2.7-1.9c1.1-0.6,2.4-1,3.6-1.5c1.3-0.5,2.5-1.1,3.6-2c1.8-1.6,2.5-4.2,1.6-6.5C76.6,93.3,74.8,92.1,72.7,90.9z"/>
	<path class="st1" d="M69.6,112.4L69.6,112.4c0,0.5,0,1,0,1.5c0,0.2,0,0.5,0.1,0.7c0.1,0.2,0.4,0.4,0.6,0.4c0.2,0,0.5-0.2,0.7-0.4
		c0.1-0.2,0.1-0.4,0.1-0.7c0-1.2,0.1-2.4,0.1-3.7c0,0,0-0.1,0-0.1c0-0.1,0-4.6,0-4.6l-1.8,0.7L69.6,112.4z"/>
</g>
</svg>
