<?xml version="1.0" encoding="utf-8"?>
<!-- Generator: Adobe Illustrator 24.3.0, SVG Export Plug-In . SVG Version: 6.00 Build 0)  -->
<svg version="1.1" id="Warstwa_1" xmlns="http://www.w3.org/2000/svg" xmlns:xlink="http://www.w3.org/1999/xlink" x="0px" y="0px"
	 viewBox="0 0 841.9 595.3" style="enable-background:new 0 0 841.9 595.3;" xml:space="preserve">
<style type="text/css">
	.st0{fill:#789C4A;}
	.st1{fill:#3D4543;}
	.st2{fill:#FFFFFF;}
</style>
<polygon class="st0" points="273.8,268.8 244.6,218.3 194.3,247.3 194.3,189.2 135.9,189.2 135.9,247.3 85.6,218.3 56.4,268.8 
	106.7,297.9 56.4,326.9 85.6,377.5 135.9,348.5 135.9,406.6 194.3,406.6 194.3,348.5 244.6,377.5 273.8,326.9 223.5,297.9 "/>
<g>
	<polygon class="st1" points="167,317.5 161.8,320.1 162.4,354.9 166.3,353 	"/>
	<path class="st1" d="M160.1,234.7c0,2.9,0,5.8,0,8.6c1.2-0.2,2.3-0.4,3.5-0.5c1.8-0.2,3.5-0.2,5.3-0.2c0-2.6,0-5.2,0-7.9
		c2.3-1.5,3.8-4.2,3.8-7.3c0-4.8-3.7-8.7-8.2-8.7c-4.6,0-8.3,3.9-8.2,8.7C156.2,230.5,157.8,233.2,160.1,234.7z"/>
	<path class="st1" d="M190.3,254.2c-1.4-3-3.5-5.5-6-7.6c-2.3-2-5-2.6-7.9-2.1c-0.7,0.1-1.4,0.2-2.1,0.3c-3.6,0.1-7.1,0-10.7,0.3
		c-4.5,0.4-8.7,1.7-12.6,4.3c-6,4-9.1,11.4-7.9,18.7c1.6,9.5,8,14.3,15.7,17.8l-0.3-10.4c0,0-3-2.2-4.8-4.5
		c-3.2-4.7-1.8-11,3.1-13.9c0.7-0.4,1.3-0.7,2-1c3.7-1.5,7.6-1.8,11.5-1.8c0.3,0,0.7,0.3,1,0.5c0.9,0.7,1.8,1.7,2.8,2.1
		c4.6,1.7,9.4,2.2,14.2,1.3C190.9,257.8,191.4,256.6,190.3,254.2z M182.3,251.8c-0.8,0-1.5-0.7-1.5-1.5s0.7-1.5,1.5-1.5
		c0.8,0,1.5,0.7,1.5,1.5S183.1,251.8,182.3,251.8z"/>
	<path class="st1" d="M168.5,256.6c-2.8,0.1-5.7,0.4-8.4,1.3l1.3,50.1l6.2-3.4L168.5,256.6z"/>
	<path class="st1" d="M170.1,281.8l-0.1,10c0,0,1.6,0.3,3.7,2.7c1.4,2,1.7,4.6,0.1,7.2c-0.9,1.4-2.1,2.6-3.4,3.5
		c-1.9,1.3-4,2.4-6,3.5c-2.6,1.4-5.2,2.7-7.8,4.1c-2.2,1.2-4.1,2.9-5.6,5c-2.8,3.9-3.1,8.7-0.7,12.3c2.4,3.7,6.1,5.4,9.9,7.1
		l-0.2-6.9c0,0-0.2-0.1-0.8-0.5c-0.4-0.3-0.9-0.6-1.3-0.9c-0.6-0.4-1.2-0.9-1.8-1.5c-1.5-1.7-1.4-3.7,0.2-5.8
		c0.4-0.4,0.7-0.9,1.2-1.2c1.4-1,2.8-2,4.4-2.8c3-1.6,6.2-3,9.2-4.5c2.7-1.4,5.2-3,7.3-5.4c3.3-3.8,4.8-8.3,3.5-13.3
		C180.3,288.1,175.2,284.7,170.1,281.8z"/>
	<path class="st1" d="M168.7,335.1l-0.1,6.2c0,0,0.5,0.2,2.8,2c3.4,3.1,3.1,6.7-0.6,9.4c-0.2,0.1-0.4,0.3-0.6,0.4
		c-1.5,0.8-3,1.6-4.5,2.3c-3.1,1.5-6.1,3.1-8.6,5.4c-1.4,1.3-2.6,2.8-3.1,4.8c-0.4,1.3-0.4,2.7,0,3.9c0.7-1.7,1.4-2.6,2.5-3.6
		c1.5-1.4,3.2-2.6,5-3.5c2.1-1.1,4.4-1.9,6.6-2.8c2.3-1,4.7-2,6.6-3.7c3.4-2.9,4.6-7.8,2.9-12C175.9,339.6,172.6,337.4,168.7,335.1z
		"/>
	<path class="st1" d="M163,375L163,375c0,0.9,0,1.9,0.1,2.9c0,0.4,0,0.9,0.2,1.3c0.2,0.4,0.7,0.8,1.1,0.8c0.4,0,0.9-0.4,1.2-0.7
		c0.2-0.3,0.2-0.8,0.2-1.2c0.1-2.3,0.1-4.5,0.1-6.8c0-0.1,0-0.1,0-0.2c0-0.2,0-8.5,0-8.5l-3.3,1.3L163,375z"/>
</g>
<g>
	<path class="st2" d="M372.8,357.4l-10.6,32.1h-6.3l-7.9-23.8l-8.1,23.8h-6.4l-10.6-32.1h6.2l8,24.4l8.3-24.4h5.5l8.1,24.6l8.2-24.6
		H372.8z"/>
	<path class="st2" d="M443.5,389.6l0-21.3l-10.6,17.6h-2.7l-10.6-17.3v21H414v-32.1h4.9l12.8,21.3l12.5-21.3h4.9l0,32.1H443.5z"/>
	<path class="st2" d="M493.4,384.5v5h-24.1v-32.1h23.5v5h-17.5v8.4h15.5v4.9h-15.5v8.9H493.4z"/>
	<path class="st2" d="M511.5,357.4h14c10.4,0,17.5,6.4,17.5,16.1c0,9.6-7.1,16.1-17.5,16.1h-14V357.4z M525.3,384.5
		c7.2,0,11.8-4.4,11.8-11c0-6.7-4.6-11-11.8-11h-7.8v22H525.3z"/>
	<path class="st2" d="M573.3,378.2v11.3h-6v-11.2l-12.6-20.9h6.4l9.4,15.7l9.5-15.7h5.9L573.3,378.2z"/>
	<path class="st2" d="M597.6,373.5c0-9.6,7.3-16.5,17.2-16.5c5.2,0,9.7,1.9,12.7,5.4l-3.9,3.6c-2.3-2.5-5.2-3.8-8.6-3.8
		c-6.7,0-11.5,4.7-11.5,11.3c0,6.6,4.8,11.3,11.5,11.3c3.4,0,6.2-1.2,8.6-3.8l3.9,3.7c-3,3.5-7.5,5.4-12.8,5.4
		C605,390,597.6,383.1,597.6,373.5z"/>
	<path class="st2" d="M658.2,378.2v11.3h-6v-11.2l-12.6-20.9h6.4l9.4,15.7l9.5-15.7h5.9L658.2,378.2z"/>
	<path class="st2" d="M714.2,357.4v32.1h-4.9l-17.7-21.8v21.8h-5.9v-32.1h4.9l17.7,21.8v-21.8H714.2z"/>
	<path class="st2" d="M734.3,357.4h6v32.1h-6V357.4z"/>
	<path class="st2" d="M784.5,384.5v5h-24.1v-32.1h23.5v5h-17.5v8.4h15.5v4.9h-15.5v8.9H784.5z"/>
</g>
<g>
	<path class="st0" d="M322.9,212.3h17.8v109h67.4v15.5h-85.1V212.3z"/>
	<path class="st0" d="M518.8,321.3v15.5h-90.3V212.3h87.8v15.5h-70V266h62.4v15.1h-62.4v40.2H518.8z"/>
	<path class="st0" d="M626.9,305.6h-66.1l-13.7,31.1h-18.3l56.4-124.4h17.6l56.5,124.4h-18.7L626.9,305.6z M620.7,291.4l-26.8-61
		l-26.8,61H620.7z"/>
	<path class="st0" d="M784.8,212.3v124.4h-14.6l-74.7-92.8v92.8h-17.8V212.3h14.6l74.7,92.8v-92.8H784.8z"/>
</g>
</svg>
