<?xml version="1.0" encoding="utf-8"?>
<!-- Generator: Adobe Illustrator 24.3.0, SVG Export Plug-In . SVG Version: 6.00 Build 0)  -->
<svg version="1.1" id="Warstwa_1" xmlns="http://www.w3.org/2000/svg" xmlns:xlink="http://www.w3.org/1999/xlink" x="0px" y="0px"
	 viewBox="0 0 362.9 198.3" style="enable-background:new 0 0 362.9 198.3;" xml:space="preserve">
<style type="text/css">
	.st0{fill:#004B95;}
</style>
<g>
	<path class="st0" d="M204.2,26.3c16.2,6.1,28.4,19.5,35.5,37c-8.3-15.4-21.1-26.6-37.1-32.6c-16-6-35-8.5-51.4-2.4
		C168.1,19.8,187.9,20.2,204.2,26.3"/>
	<path class="st0" d="M153.6,19.4c-16.1,6.4-27.9,20-34.7,37.7c8-15.5,20.6-27,36.5-33.4c15.8-6.3,34.6-7,51-1.2
		C189.4,14.3,169.7,13,153.6,19.4"/>
	<path class="st0" d="M174.9,28.7c-15.9,0.7-30.4,9-41.7,22.4c11.7-11.2,26.2-17.3,41.9-18.1c15.7-0.7,33.2,2.4,45.7,12.5
		C208.4,33.3,190.9,28,174.9,28.7"/>
	<path class="st0" d="M177.2,74c4.8,0,8.6-4,8.6-8.6c0-4.8-3.9-8.6-8.6-8.6c-4.8,0-8.6,3.9-8.6,8.6C168.6,70.1,172.4,74,177.2,74"/>
	<path class="st0" d="M192,108.5c0-26.2,36-38,56.8-41.1c-20.9,0-55.9,2-71.6,17.8c-15.7-15.7-50.7-17.8-71.6-17.8
		c20.8,3,56.8,14.9,56.8,41.1H192z"/>
	<path class="st0" d="M295.9,169.8V163h-15.6v-8.6h14.5v-6.8h-14.5v-7.3h15.1v-6.8h-24.2v36.3H295.9z M189.1,166.8v-8.4
		c-4.4,2.9-8.8,4.6-13.2,4.6c-6.8,0-11.1-4.5-11.1-11.3c0-6.9,4.5-11.2,11.9-11.2c4,0,8,1.3,12.1,3.9V136c-4.1-2-8.2-3-12.7-3
		c-12.7,0-20.6,7.8-20.6,18.8c0,5.5,2,10.2,5.6,13.7c3.6,3.3,8.3,5.2,14.1,5.2C180.3,170.5,184.8,169.3,189.1,166.8 M150,133.5h-9.4
		v36.3h9.4V133.5z M93.7,169.8V163H78v-8.6h14.5v-6.8H78v-7.3h15.1v-6.8H68.9v36.3H93.7z M61.8,169.8v-36.3h-8L42,148.2l-11.6-14.7
		h-8v36.3h8.9v-22.4L42,160.7l10.9-13.3v22.4H61.8z"/>
	<path class="st0" d="M127.9,137.3c-3.4-2.5-6.9-3.3-10.9-3.7c-1.3,0-2.6-0.1-4.2-0.1H99.3v36.3h13.6c1.5,0,2.8,0,4.2-0.1
		c3.4-0.1,6.5-0.7,9.4-2.6c5.5-3.6,8.5-8.9,8.5-15.4C135,145.8,132.6,140.8,127.9,137.3 M117.1,162.3c-0.6,0.1-1.2,0.2-1.9,0.2h-6.7
		v-21.6h6.7c0.7,0,1.3,0,1.9,0.1c5.2,0.8,8.6,5,8.6,10.6C125.7,157.4,122.3,161.5,117.1,162.3"/>
	<path class="st0" d="M231.4,146.1c-0.9-3-2.5-5.7-5-8c-3.5-3.5-8.3-5.2-14-5.2c-5.8,0-10.4,1.7-14.1,5.2c-3.6,3.6-5.7,8.2-5.7,13.6
		c0,5.4,2,10.1,5.7,13.6c3.7,3.4,8.3,5.3,14.1,5.3c5.7,0,10.4-1.8,14-5.3c2.4-2.2,4.1-4.9,5-7.9c0.5-1.8,0.8-3.7,0.8-5.7
		C232.2,149.7,231.9,147.9,231.4,146.1 M212.4,162.8c-6.1,0-10.4-4.6-10.4-11.2c0-6.5,4.4-11.1,10.4-11.1c6,0,10.4,4.6,10.4,11.1
		C222.8,158.3,218.4,162.8,212.4,162.8"/>
	<polygon class="st0" points="258.8,133.5 249.3,154.7 240.3,133.5 230.6,133.5 231.4,135.2 247.1,170.2 251,170.2 268.6,133.5 	"/>
	<path class="st0" d="M327.7,157.5c-1-2.3-2.5-3.9-4.3-4.7c4.4-1.9,6.3-4.8,6.3-8.7c0-7.2-4.7-10.4-14.1-10.5h-13.8v36.3h9.1v-14.7
		c0.4,0,0.7-0.1,1.1-0.1c1.4,0,2.6,0.2,3.5,0.6c1.3,0.7,2.1,1.8,2.9,3.8l4.7,10.5h10.2L327.7,157.5z M315.6,148.4h-4.7V140h4.7
		c3,0.1,4.7,1.6,4.7,4.2C320.3,147,318.7,148.3,315.6,148.4"/>
</g>
</svg>
