<?xml version="1.0" encoding="utf-8"?>
<!-- Generator: Adobe Illustrator 24.3.0, SVG Export Plug-In . SVG Version: 6.00 Build 0)  -->
<svg version="1.1" id="Warstwa_1" xmlns="http://www.w3.org/2000/svg" xmlns:xlink="http://www.w3.org/1999/xlink" x="0px" y="0px"
	 viewBox="0 0 141.7 141.7" style="enable-background:new 0 0 141.7 141.7;" xml:space="preserve">
<style type="text/css">
	.st0{fill:#6E8A37;}
	.st1{fill:#2F3634;}
	.st2{fill:#789C4A;}
</style>
<g id="Group_123" transform="translate(-5412.189 863.808)">
	<path id="Path_162" class="st0" d="M5495.1-760.7C5495.1-760.7,5495.1-760.7,5495.1-760.7L5495.1-760.7c0,0.3-0.3,0.5-0.5,0.5h-2.4
		c-0.1,0-0.3,0.1-0.3,0.1l0,0c-0.1,0.1-0.1,0.2-0.1,0.3v2.4c0,0,0,0,0,0v0c0,0,0,0,0,0s0,0,0,0v0c0,0,0,0,0,0v0c0,0,0,0,0,0v0
		c0,0,0,0,0,0l0,0l0,0l0,0c-0.1,0.1-0.2,0.2-0.3,0.2l0,0h0h0h0h0h-1.5c-0.3,0-0.5-0.2-0.5-0.5c0,0,0,0,0,0v-2.4
		c0-0.3-0.2-0.5-0.5-0.5h-2.4c-0.1,0-0.2,0-0.3-0.1c-0.1-0.1-0.2-0.2-0.2-0.4v-1.6c0,0,0,0,0,0v0c0-0.3,0.3-0.5,0.5-0.5h2.4
		c0.3,0,0.5-0.2,0.5-0.5v-2.4c0,0,0,0,0,0v0c0,0,0,0,0,0c0,0,0,0,0,0v0c0,0,0,0,0,0l0,0c0,0,0,0,0,0v0l0,0l0,0
		c0.1-0.1,0.2-0.2,0.3-0.2l0,0h0h0h0h0h1.5c0.3,0,0.5,0.2,0.5,0.5c0,0,0,0,0,0v2.4c0,0.3,0.2,0.5,0.5,0.5h2.4c0.1,0,0.2,0,0.3,0.1
		c0.1,0.1,0.2,0.2,0.2,0.4L5495.1-760.7C5495-760.7,5495-760.7,5495.1-760.7L5495.1-760.7z"/>
	<path id="Path_163" class="st1" d="M5484.2-748.4c-5.8,0-10.4-0.4-14.9-2.1c-2.1-0.7-4.1-1.9-5.6-3.6c-0.4-0.4-0.7-1-0.7-1.6
		c-0.1-3.6,0.1-7.1,0.9-10.6c0.7-3.5,3.2-6.4,6.6-7.6c2.4-0.8,4.9-1.5,7.4-2c0.4,0,0.8,0.1,1,0.4c2.5,2.3,6.3,2.3,8.8,0
		c0.2-0.3,0.6-0.4,0.9-0.4c2.4,0.6,4.8,1,7.1,1.8c4.9,1.7,7,5.5,7.5,10.4c0.2,2.4,0.2,4.7,0.4,7.1c0.1,1.2-0.4,2.4-1.4,3.1
		c-2.2,1.8-4.8,3.1-7.6,3.7C5491.2-748.8,5487.7-748.4,5484.2-748.4z M5488.9-772.2c-3.8,2.2-7.5,2.3-11.2,0
		c-0.3-0.2-0.6-0.2-0.9-0.2c-1.8,0.5-3.6,0.9-5.3,1.6c-2.4,0.8-4.1,2.9-4.5,5.3c-0.4,2.8-0.5,5.7-0.8,8.6c-0.1,0.6,0.2,1.2,0.7,1.6
		c1.6,1,3.3,1.8,5,2.4c7.1,1.8,14.6,1.9,21.7,0.3c2.1-0.4,4.1-1.2,5.8-2.5c0.6-0.4,1-1.1,0.9-1.9c-0.2-2.2-0.2-4.4-0.4-6.6
		c-0.3-2.6-1-5-3.4-6.4c-1.3-0.7-2.7-1.3-4.1-1.7C5491.3-772.1,5490.1-772.3,5488.9-772.2L5488.9-772.2z"/>
	<path id="Path_164" class="st1" d="M5494.7-792c0.2,4-0.5,7.2-2.4,10.1c-4.7,7.1-13.9,7-18.4-0.3c-1.2-2-2-4.2-2.2-6.5
		c-0.3-2.7-0.1-5.4,0.6-8.1c1.1-4,3.7-6.4,7.9-6.9c2.1-0.3,4.3-0.2,6.4,0.1c4.3,0.7,6.9,3.8,7.6,8.5
		C5494.6-793.8,5494.7-792.6,5494.7-792z M5491.7-790.8c-0.2-1.6-0.4-3.3-0.7-4.9c-0.4-2.3-2.2-4.2-4.5-4.5
		c-1.8-0.3-3.7-0.4-5.5-0.2c-2.8,0.1-5.2,2.3-5.4,5.2c-0.3,2.3-0.4,4.6-0.3,6.9c0.1,2.2,1,4.2,2.5,5.8c2.4,3.1,6.8,3.7,10,1.3
		c0.5-0.4,0.9-0.8,1.3-1.3C5490.7-784.9,5491.7-787.8,5491.7-790.8L5491.7-790.8z"/>
	<path id="Path_165" class="st1" d="M5515.9-800.9c0.1,2.6-0.6,5.1-1.9,7.3c-3.9,6.3-12,6.3-15.8,0c-2.7-4.5-2.5-9.2-0.6-13.9
		c0.9-2.2,2.9-3.8,5.2-4.1c1.8-0.3,3.7-0.4,5.5-0.2c4.3,0.6,6.7,3.3,7.3,7.6C5515.7-803.1,5515.8-802,5515.9-800.9z M5499.3-801.1
		c-0.1,2.2,0.6,4.4,1.8,6.3c0.9,1.4,2.4,2.4,4.2,2.6c2.7,0.3,5.1-1.2,6.4-4.1c1.2-3,1.3-6.4,0.2-9.4c-0.4-1.5-1.7-2.6-3.2-2.8
		c-1.6-0.2-3.2-0.3-4.7-0.1c-2,0.2-3.7,1.7-4,3.8C5499.6-803.5,5499.5-802.3,5499.3-801.1L5499.3-801.1z"/>
	<path id="Path_166" class="st1" d="M5450.6-800.6c0-1.8,0.2-3.5,0.7-5.3c0.7-3.1,3.3-5.5,6.5-5.8c1.8-0.2,3.7-0.2,5.5,0
		c2.7,0.3,5.1,2.2,5.9,4.8c1.4,3.7,1.4,7.9-0.1,11.6c-1.7,4.2-5.4,6.6-9.5,6.2c-4.2-0.4-6.7-3-8.1-6.8
		C5451-797.3,5450.6-799,5450.6-800.6z M5453.8-801c-0.1,2.2,0.6,4.4,1.8,6.2c1.1,1.7,3,2.8,5,2.7c2.8-0.1,4.4-1.8,5.5-4.2
		c1.2-2.7,1-5.5,0.5-8.4c-0.3-2.1-2-3.7-4.1-3.9c-1.4-0.2-2.8-0.2-4.2,0c-2,0.2-3.6,1.7-3.9,3.7C5454-803.5,5453.8-802.3,5453.8-801
		L5453.8-801z"/>
	<path id="Path_167" class="st1" d="M5503.6-768.8c2.2,0.1,4.4,0.1,6.5,0c2.2-0.3,4.5-0.8,6.6-1.3c0.7-0.3,1.4-0.6,2.1-1
		c0.7-0.3,1.1-1.1,1-1.8c-0.2-2.2-0.3-4.4-0.6-6.6c-0.3-2-1.6-3.6-3.5-4.3c-1.4-0.5-2.8-0.9-4.3-1.3c-0.4,0-0.7,0.1-1,0.3
		c-2.7,1.7-6.2,1.7-8.9,0c-0.4-0.2-0.9-0.3-1.3-0.2c-1.5,0.4-3,0.9-4.5,1.3c0.2-1,0.4-2.2,0.6-3.3c0.1-0.2,0.3-0.4,0.5-0.4
		c1.6-0.4,3.3-0.8,4.9-1.2c0.3,0,0.6,0.2,0.8,0.4c1.9,1.9,5,1.8,6.9,0c0.2-0.2,0.5-0.4,0.8-0.4c2.3,0.5,4.5,1.1,6.7,1.9
		c3.5,1.4,5.2,4.3,5.6,8c0.3,2.3,0.4,4.5,0.4,6.8c-0.1,0.8-0.4,1.6-1,2.2c-1.9,1.8-4.2,3-6.8,3.4c-3.2,0.7-6.6,1.1-9.9,1
		c-0.5,0.1-0.9-0.2-1-0.7c0,0,0-0.1,0-0.1C5504.2-767,5504-767.7,5503.6-768.8z"/>
	<path id="Path_168" class="st1" d="M5470.8-783.8c-1.5-0.4-3-0.9-4.6-1.3c-0.4-0.1-0.9,0-1.3,0.2c-2.7,1.6-6.2,1.6-8.9,0
		c-0.4-0.2-0.8-0.3-1.2-0.2c-0.7,0.1-1.4,0.3-2.1,0.5c-4,1.2-5.5,3-5.9,7.1c-0.1,1.5-0.1,3-0.2,4.6c-0.1,0.6,0.2,1.3,0.8,1.6
		c1.7,1.2,3.7,1.9,5.8,2.1c2.8,0.3,5.6,0.4,8.4,0.6c0.4,0,0.7,0,1.2,0c-0.3,1-0.5,1.9-0.7,2.7c-0.1,0.2-0.4,0.4-0.7,0.5
		c-4.6,0-9.2-0.2-13.5-2.2c-1.3-0.7-2.6-1.6-3.7-2.6c-0.4-0.4-0.7-0.9-0.7-1.5c0.1-2.8,0.3-5.7,0.7-8.5c0.5-3.2,2.8-5.9,5.9-6.8
		c2-0.6,4-1.2,6.1-1.6c0.3,0,0.7,0.1,0.9,0.3c1.9,1.9,5,1.9,6.9,0c0.2-0.3,0.6-0.4,0.9-0.4c1.6,0.3,3.1,0.7,4.6,1.1
		c0.4,0.2,0.6,0.5,0.7,0.9C5470.4-785.7,5470.6-784.7,5470.8-783.8z"/>
	<path id="Path_169" class="st2" d="M5473.7-815.4h1.9v8h3v-9.5c0-0.8-0.7-1.5-1.5-1.5c0,0,0,0,0,0h-3l8.7-10.2l8.7,10.2h-3
		c-0.8,0-1.5,0.7-1.5,1.5v9.5h3v-8h1.9c1.1,0,2.1-0.6,2.5-1.6c0.5-1,0.3-2.2-0.4-3l-9.1-10.7c-0.5-0.6-1.3-1-2.1-1
		c-0.8,0-1.6,0.3-2.2,1l-9,10.6c-0.5,0.5-0.8,1.2-0.8,2c0,0.7,0.3,1.5,0.8,2C5472.3-815.7,5473-815.4,5473.7-815.4z"/>
</g>
</svg>
