<?xml version="1.0" encoding="utf-8"?>
<!-- Generator: Adobe Illustrator 24.3.0, SVG Export Plug-In . SVG Version: 6.00 Build 0)  -->
<svg version="1.1" id="Warstwa_1" xmlns="http://www.w3.org/2000/svg" xmlns:xlink="http://www.w3.org/1999/xlink" x="0px" y="0px"
	 viewBox="0 0 141.7 141.7" style="enable-background:new 0 0 141.7 141.7;" xml:space="preserve">
<style type="text/css">
	.st0{fill:#6E8A37;}
	.st1{fill:#2F3634;}
</style>
<g id="Group_106" transform="translate(-913.177 84.505)">
	<g id="Group_104" transform="translate(942.675 -55.111)">
		<path id="Path_98" class="st0" d="M87.3,85.9L77.2,68.4c8.7-9.3,8.2-23.8-1.1-32.5S52.3,27.7,43.6,37c-8.7,9.3-8.2,23.8,1.1,32.5
			c2.8,2.6,6.1,4.5,9.8,5.4c2,0.5,4,0.8,6,0.8c1.7,0,3.5-0.2,5.2-0.6l10.1,17.5c1.8,3.2,5.9,4.3,9.1,2.4S89.1,89.1,87.3,85.9
			L87.3,85.9z M55.3,71.5C45,68.8,38.8,58.1,41.6,47.7C44.4,37.3,55,31.1,65.4,33.9C75.8,36.7,82,47.4,79.2,57.8
			c-1.3,5-4.6,9.2-9.1,11.8C65.7,72.2,60.3,72.9,55.3,71.5L55.3,71.5z M83.1,92c-1.5,0.9-3.5,0.4-4.3-1.2L69,74
			c2-0.8,3.8-1.9,5.5-3.2l9.7,16.8C85.1,89.2,84.6,91.1,83.1,92C83.1,92,83.1,92,83.1,92L83.1,92z"/>
		<path id="Path_99" class="st0" d="M73,63.7c0.1-0.1,0.2-0.3,0.3-0.4c0.1-0.1,0.1-0.1,0.2-0.2c0.1-0.1,0.2-0.3,0.3-0.4l0.1-0.2
			c0.1-0.1,0.2-0.3,0.3-0.4l0.2-0.2c0.1-0.1,0.2-0.3,0.3-0.4c0.1-0.1,0.1-0.2,0.2-0.3c0.1-0.1,0.1-0.2,0.2-0.4
			c0.1-0.1,0.1-0.2,0.2-0.4s0.1-0.2,0.2-0.3c0.1-0.1,0.1-0.3,0.2-0.5c0-0.1,0.1-0.2,0.1-0.2c0.1-0.2,0.2-0.4,0.2-0.6
			c0,0,0-0.1,0.1-0.1c0.1-0.2,0.2-0.5,0.3-0.7l0,0c0-0.1,0-0.1,0.1-0.2c0.4-1.3,0.6-2.6,0.7-3.9c0-0.1,0-0.1,0-0.2
			c0-0.2,0-0.4,0-0.6c0-0.1,0-0.2,0-0.4s0-0.3,0-0.4s0-0.3,0-0.5c0-0.1,0-0.2,0-0.3c0-0.2,0-0.3,0-0.5c0-0.1,0-0.2,0-0.3
			c0-0.2,0-0.3-0.1-0.5c0-0.1,0-0.2,0-0.3c0-0.2-0.1-0.3-0.1-0.5c0-0.1,0-0.2-0.1-0.3c0-0.1-0.1-0.3-0.1-0.4c0-0.1-0.1-0.2-0.1-0.4
			s-0.1-0.2-0.1-0.4c0-0.1-0.1-0.3-0.1-0.4c0-0.1-0.1-0.2-0.1-0.3c-0.1-0.1-0.1-0.3-0.2-0.5c0-0.1-0.1-0.2-0.1-0.3
			c-0.1-0.2-0.1-0.3-0.2-0.5c0-0.1-0.1-0.1-0.1-0.2c0-0.1,0-0.1-0.1-0.2s0-0.1-0.1-0.1c-0.2-0.4-0.4-0.8-0.6-1.1
			c-0.7-1.3-1.6-2.4-2.7-3.5c-1.1-1.1-2.4-2.1-3.8-2.8h0c-0.1-0.1-0.3-0.2-0.4-0.2l-0.1-0.1l-0.1-0.1c-2.6-1.3-5.5-1.8-8.3-1.6h-0.1
			c-0.2,0-0.4,0-0.6,0.1l-0.1,0c-0.2,0-0.5,0.1-0.7,0.1l-0.1,0c-0.2,0-0.4,0.1-0.6,0.1l-0.3,0.1c-0.1,0-0.3,0.1-0.4,0.1l-0.3,0.1
			c-0.1,0-0.3,0.1-0.4,0.1c-0.1,0-0.2,0.1-0.3,0.1c-0.2,0.1-0.4,0.1-0.6,0.2c-0.1,0-0.2,0.1-0.4,0.1l-0.3,0.1
			c-0.1,0.1-0.2,0.1-0.4,0.1l-0.3,0.1c-0.1,0.1-0.3,0.1-0.4,0.2L53,37.7c-0.1,0.1-0.2,0.1-0.4,0.2c-1.2,0.6-2.3,1.4-3.2,2.2
			c-0.1,0.1-0.1,0.1-0.2,0.2c-0.1,0.1-0.3,0.2-0.4,0.4c-0.1,0.1-0.2,0.2-0.3,0.3c-0.1,0.1-0.2,0.2-0.3,0.3c-0.1,0.1-0.2,0.2-0.3,0.3
			c-0.1,0.1-0.1,0.2-0.2,0.2c-0.1,0.1-0.2,0.2-0.3,0.4c-0.1,0.1-0.1,0.2-0.2,0.2c-0.1,0.1-0.2,0.3-0.3,0.4c-0.1,0.1-0.1,0.2-0.2,0.3
			c-0.1,0.1-0.2,0.2-0.3,0.4c-0.1,0.1-0.1,0.2-0.2,0.3c-0.1,0.1-0.1,0.2-0.2,0.4c-0.1,0.1-0.1,0.2-0.2,0.3c-0.1,0.1-0.1,0.2-0.2,0.3
			c-0.1,0.1-0.1,0.3-0.2,0.4c0,0.1-0.1,0.2-0.1,0.3c-0.1,0.2-0.2,0.3-0.2,0.5c0,0.1-0.1,0.1-0.1,0.2c-0.1,0.2-0.2,0.4-0.2,0.6
			c0,0,0,0.1-0.1,0.1c0,0.1-0.1,0.1-0.1,0.2c0,0.1,0,0.1-0.1,0.2c-0.1,0.4-0.3,0.8-0.4,1.2c-0.7,2.5-0.8,5.1-0.2,7.6
			c0,0.1,0,0.2,0.1,0.3s0.1,0.2,0.1,0.3c0,0.2,0.1,0.3,0.1,0.5c0,0.1,0,0.1,0.1,0.2c0.8,2.6,2.1,5,4.1,7l0,0
			c0.2,0.2,0.3,0.3,0.5,0.5L49,65c0.1,0.1,0.3,0.3,0.4,0.4c0.1,0.1,0.2,0.2,0.3,0.3c0.1,0.1,0.2,0.2,0.3,0.3
			c0.1,0.1,0.2,0.2,0.3,0.2l0.2,0.2c0.1,0.1,0.2,0.2,0.4,0.3l0.2,0.1c0.2,0.2,0.5,0.3,0.7,0.5l0.2,0.1c0.1,0.1,0.2,0.1,0.4,0.2
			l0.3,0.1c0.1,0.1,0.2,0.1,0.4,0.2c0.1,0.1,0.3,0.1,0.4,0.2c0.1,0.1,0.3,0.1,0.4,0.2s0.3,0.1,0.5,0.2l0.3,0.1
			c0.2,0.1,0.3,0.1,0.5,0.2l0.2,0.1c0.2,0.1,0.4,0.1,0.7,0.2l0,0c0.2,0.1,0.5,0.1,0.7,0.2l0.1,0c0.5,0.1,1,0.2,1.5,0.2l0.1,0
			c0.5,0.1,1,0.1,1.5,0.1h0.1h0.2c0.4,0,0.9,0,1.3-0.1h0.1c0.5,0,1-0.1,1.5-0.2l0.1,0c0.5-0.1,1-0.2,1.5-0.4l0,0
			c0.5-0.1,1-0.3,1.5-0.5l0,0c0.5-0.2,1-0.4,1.5-0.7h0c0.2-0.1,0.5-0.3,0.7-0.4c0.5-0.3,0.9-0.6,1.4-0.9l0,0
			c0.2-0.1,0.4-0.3,0.6-0.4c0.1-0.1,0.1-0.1,0.2-0.2c0.1-0.1,0.3-0.2,0.4-0.3c0.1-0.1,0.2-0.2,0.3-0.3c0.1-0.1,0.2-0.2,0.3-0.3
			c0.1-0.1,0.2-0.2,0.3-0.3c0.1-0.1,0.1-0.1,0.2-0.2c0.1-0.1,0.2-0.2,0.3-0.4C72.9,63.8,72.9,63.7,73,63.7z M72.4,47.3L72.4,47.3
			c0.1,0.2,0.2,0.4,0.2,0.6l0,0.1c0.1,0.2,0.1,0.3,0.2,0.5c0,0.1,0,0.1,0.1,0.2c0,0.1,0.1,0.3,0.1,0.4c0,0.1,0,0.1,0.1,0.2
			c0,0.1,0.1,0.3,0.1,0.4c0,0.1,0,0.2,0.1,0.2c0,0.1,0.1,0.2,0.1,0.4c0,0.1,0,0.2,0.1,0.3c0,0.1,0,0.2,0.1,0.3c0,0.1,0,0.2,0,0.3
			c0,0.1,0,0.2,0,0.4c0,0.1,0,0.2,0,0.3c0,0.1,0,0.3,0,0.4c0,0.1,0,0.1,0,0.2c0,0.2,0,0.3,0,0.5c0,0,0,0.1,0,0.1
			c0,1.5-0.3,3-0.9,4.5l0,0c-0.1,0.2-0.2,0.4-0.2,0.6v0c-2.6,5.9-9.2,9.1-15.5,7.4l-0.1,0c-0.2,0-0.3-0.1-0.5-0.1l-0.2-0.1
			c-0.1,0-0.2-0.1-0.3-0.1L55.6,65c-0.1,0-0.2-0.1-0.3-0.1c-0.1-0.1-0.3-0.1-0.4-0.2c-0.1,0-0.2-0.1-0.3-0.1c-0.1,0-0.2-0.1-0.3-0.1
			l-0.2-0.1c-0.1-0.1-0.2-0.1-0.3-0.2l-0.1-0.1c-0.2-0.1-0.4-0.2-0.6-0.4L53,63.6c-0.1-0.1-0.2-0.1-0.3-0.2l-0.2-0.1
			c-0.1-0.1-0.2-0.1-0.3-0.2c-0.1-0.1-0.2-0.1-0.3-0.2c-0.1-0.1-0.1-0.1-0.2-0.2c-0.1-0.1-0.2-0.2-0.4-0.3l-0.1-0.1
			c-0.1-0.1-0.3-0.3-0.4-0.4l0,0c-5.1-5.2-4.9-13.6,0.3-18.7c0.8-0.7,1.6-1.4,2.6-1.9c0.3-0.2,0.6-0.3,0.9-0.5l0,0
			c0.1-0.1,0.2-0.1,0.4-0.2l0.1-0.1c0.1-0.1,0.2-0.1,0.4-0.1l0.1-0.1c0.4-0.1,0.7-0.3,1.1-0.4L57,40c0.1,0,0.2-0.1,0.3-0.1l0.3-0.1
			l0.3-0.1c0.1,0,0.2,0,0.3-0.1l0.2,0c0.2,0,0.4-0.1,0.5-0.1l0.1,0c0.1,0,0.3,0,0.5,0l0.1,0c0.2,0,0.4,0,0.5,0l0,0
			c2.3,0,4.6,0.5,6.6,1.6l0.2,0.1l0.3,0.1c0.1,0.1,0.2,0.1,0.3,0.2l0.1,0.1c0.2,0.2,0.5,0.3,0.7,0.5l0,0c1.4,1.1,2.6,2.4,3.4,3.9
			C72,46.5,72.2,46.9,72.4,47.3z"/>
	</g>
	<g id="Group_105" transform="translate(913.177 -84.505)">
		<path id="Path_100" class="st1" d="M100.5,80.7c0-0.1,0-0.1,0-0.2c0-0.1,0-0.2,0-0.3c0-0.1,0-0.1,0-0.2c0-0.1,0-0.2-0.1-0.3
			c0-0.1,0-0.1,0-0.2c0-0.1-0.1-0.2-0.1-0.3c0-0.1,0-0.1,0-0.2c0-0.1-0.1-0.2-0.1-0.3l0-0.1c0-0.1-0.1-0.2-0.1-0.4l0-0.1
			c-0.1-0.1-0.1-0.3-0.2-0.4l0-0.1c-0.1-0.3-0.3-0.6-0.5-0.9c-0.1-0.1-0.2-0.3-0.3-0.4H86.1c-1.2,0-2.2,1-2.2,2.2V91l0,0
			c0.2,0.1,0.3,0.2,0.5,0.3l0.1,0.1c0.1,0,0.2,0.1,0.3,0.1l0.2,0.1c0.1,0,0.2,0.1,0.2,0.1l0.2,0.1l0,0c0.1,0.1,0.2,0.1,0.3,0.1
			c0.1,0,0.2,0.1,0.3,0.1l0.2,0.1c0.1,0,0.2,0.1,0.3,0.1l0.2,0.1c0.1,0,0.3,0.1,0.4,0.1l0.1,0c0.4,0.1,0.8,0.2,1.2,0.2v-12
			L100.5,80.7z"/>
		<path id="Path_101" class="st1" d="M83.3,106.7c-1.2-0.3-2.4-0.7-3.5-1.2c-0.7,0.3-1.5,0.5-2.3,0.5c0,0-0.1,0-0.1,0
			c-0.1,0-0.2,0-0.2,0H64.3c-0.1,0-0.3,0-0.5,0l-0.1,0c-0.1,0-0.3,0-0.4,0h-0.1c-0.1,0-0.3-0.1-0.4-0.1l-0.1,0
			c-0.1,0-0.2-0.1-0.3-0.1l-0.1,0c-0.1,0-0.3-0.1-0.4-0.1l-0.1-0.1c-0.1,0-0.2-0.1-0.3-0.1l-0.1-0.1c-0.1-0.1-0.2-0.1-0.3-0.2
			l-0.1-0.1c-0.1,0-0.1-0.1-0.2-0.1l-0.1-0.1c-0.1-0.1-0.1-0.1-0.2-0.1l-0.1,0c-1-0.7-1.7-1.7-2.1-2.8l0,0c0-0.1-0.1-0.2-0.1-0.3
			l0-0.1c0-0.1-0.1-0.2-0.1-0.3v0c0-0.1-0.1-0.3-0.1-0.4c0,0,0,0,0-0.1c0-0.1,0-0.2-0.1-0.3c0,0,0-0.1,0-0.1c0-0.1,0-0.2,0-0.3
			c0,0,0-0.1,0-0.1c0-0.1,0-0.3,0-0.4V78.5l0,0v0c0-1.2-1-2.2-2.2-2.2H34.3h-0.1c-0.1,0-0.1,0-0.2,0s-0.2,0-0.2,0l-0.2,0
			c-0.1,0-0.2,0-0.2,0l-0.2,0c-0.1,0-0.2,0-0.2-0.1L32.6,76c-0.1,0-0.2-0.1-0.2-0.1l-0.2-0.1c-0.1,0-0.2-0.1-0.3-0.1
			c-0.1,0-0.1,0-0.2-0.1c-0.1,0-0.2-0.1-0.3-0.1l-0.1-0.1c-0.1-0.1-0.3-0.1-0.4-0.2v0c-1.9-1.2-3.1-3.4-3.1-5.7v-13
			c0-0.2,0-0.3,0-0.5c0,0,0-0.1,0-0.1c0-0.1,0-0.3,0-0.4c0,0,0-0.1,0-0.1c0-0.1,0-0.2,0.1-0.4c0-0.1,0-0.1,0-0.2
			c0-0.1,0-0.1,0.1-0.2c0-0.1,0.1-0.3,0.1-0.4l0-0.1c1-2.6,3.5-4.4,6.3-4.4h20.8c1.2,0,2.2-1,2.2-2.2V27c0-0.1,0-0.3,0-0.4
			c0,0,0-0.1,0-0.1c0-0.1,0-0.3,0-0.4v0c0-0.1,0-0.3,0.1-0.4l0-0.1c0-0.1,0.1-0.3,0.1-0.4l0,0c0-0.1,0.1-0.2,0.1-0.4l0-0.1
			c0-0.1,0.1-0.3,0.1-0.4l0-0.1c0-0.1,0.1-0.2,0.1-0.3l0.1-0.1c0.1-0.1,0.1-0.2,0.2-0.3c0,0,0.1-0.1,0.1-0.1c0-0.1,0.1-0.1,0.1-0.2
			l0.1-0.1c0.2-0.2,0.3-0.4,0.5-0.6l0,0c0.1-0.1,0.2-0.2,0.3-0.3l0,0c0.1-0.1,0.2-0.2,0.3-0.2l0,0c0.3-0.3,0.6-0.5,1-0.7l0.1,0
			c0.1-0.1,0.2-0.1,0.3-0.1l0.1,0c0.1,0,0.2-0.1,0.3-0.1l0.1,0c0.1,0,0.2-0.1,0.3-0.1l0,0c0.1,0,0.3-0.1,0.4-0.1l0.1,0
			c0.1,0,0.2,0,0.3-0.1l0.1,0c0.1,0,0.2,0,0.3,0l0.1,0c0.1,0,0.2,0,0.3,0l0.1,0c0.1,0,0.3,0,0.4,0h13c0.1,0,0.3,0,0.4,0
			c3.5,0.2,6.3,3.2,6.2,6.7v20.8c0,1.2,1,2.2,2.2,2.2h20.8c1.7,0,3.3,0.6,4.5,1.7c1.3,1.2,2.1,2.9,2.2,4.7c0,0,0,0.1,0,0.1
			c0,0.1,0,0.2,0,0.2v12.9c0,0,0,0,0,0c0,0.1,0,0.3,0,0.4c0,0.6-0.2,1.3-0.4,1.9c0.8,1.7,1.3,3.6,1.7,5.4c0.1-0.1,0.2-0.2,0.3-0.3
			c1.8-1.9,2.8-4.4,2.9-7c0,0,0,0,0-0.1c0,0,0,0,0,0c0-0.1,0-0.2,0-0.3v-13c0-2.9-1.2-5.8-3.3-7.9c-2.1-2.1-4.9-3.3-7.9-3.3H88.3V27
			c0-5.9-4.6-10.7-10.5-11.1h0h-0.1c0,0-0.1,0-0.1,0h0c-0.1,0-0.2,0-0.4,0h-13h-0.1c-0.2,0-0.4,0-0.5,0c-0.1,0-0.2,0-0.3,0
			c-0.1,0-0.2,0-0.3,0c-0.1,0-0.3,0-0.4,0l-0.2,0c-0.7,0.1-1.4,0.3-2,0.5l0,0c-1.7,0.6-3.2,1.6-4.4,2.9L56,19.5
			c-0.1,0.1-0.2,0.2-0.3,0.3c0,0.1-0.1,0.1-0.1,0.2c-0.1,0.1-0.1,0.2-0.2,0.3c-0.1,0.1-0.2,0.3-0.3,0.5l0,0
			c-0.1,0.1-0.2,0.3-0.3,0.4l-0.1,0.1c-0.1,0.1-0.1,0.2-0.2,0.3l-0.1,0.1c-0.1,0.1-0.1,0.3-0.2,0.4l0,0c-0.1,0.1-0.1,0.3-0.2,0.4
			c0,0,0,0.1-0.1,0.1c0,0.1-0.1,0.2-0.1,0.3c0,0,0,0.1-0.1,0.1c-0.1,0.1-0.1,0.3-0.2,0.5l0,0c0,0.2-0.1,0.3-0.1,0.5c0,0,0,0.1,0,0.1
			c0,0.1-0.1,0.2-0.1,0.4c0,0,0,0.1,0,0.1c-0.1,0.3-0.1,0.7-0.1,1c0,0,0,0.1,0,0.1c0,0.1,0,0.3,0,0.4c0,0.1,0,0.1,0,0.1
			c0,0.2,0,0.3,0,0.5v18.6H34.6c-3.1,0-6,1.3-8.1,3.5l-0.1,0.2c-0.1,0.1-0.1,0.2-0.2,0.2c-0.1,0.1-0.1,0.2-0.2,0.3
			c0,0.1-0.1,0.1-0.1,0.2c-0.1,0.2-0.2,0.3-0.3,0.5l0,0c0,0.1-0.1,0.1-0.1,0.2c0,0.1-0.1,0.1-0.1,0.2S25,51,25,51
			c0,0.1-0.1,0.1-0.1,0.2c0,0.1-0.1,0.1-0.1,0.2c-0.1,0.1-0.1,0.2-0.2,0.4c0,0.1-0.1,0.1-0.1,0.2c0,0.1-0.1,0.2-0.1,0.2
			c0,0.1-0.1,0.1-0.1,0.2c0,0.1-0.1,0.2-0.1,0.3c0,0.1,0,0.1-0.1,0.2c-0.1,0.1-0.1,0.3-0.1,0.4c0,0,0,0.1,0,0.1
			c0,0.1-0.1,0.2-0.1,0.3c0,0.1,0,0.1,0,0.2c0,0.1-0.1,0.2-0.1,0.3c0,0.1,0,0.1,0,0.2c0,0.2-0.1,0.3-0.1,0.5c0,0,0,0,0,0.1
			c0,0.1,0,0.3-0.1,0.4c0,0.1,0,0.1,0,0.2c0,0.1,0,0.2,0,0.4c0,0.1,0,0.1,0,0.1c0,0.2,0,0.3,0,0.5v13c0,0.2,0,0.4,0,0.7
			c0,0.1,0,0.1,0,0.2c0,0.1,0,0.3,0,0.4c0,0.1,0,0.1,0,0.2c0,0.1,0,0.3,0.1,0.4c0,0.1,0,0.1,0,0.2c0,0.2,0.1,0.4,0.1,0.6l0,0
			c0.1,0.2,0.1,0.4,0.2,0.6c0,0.1,0,0.1,0.1,0.2c0,0.1,0.1,0.3,0.1,0.4c0,0.1,0.1,0.1,0.1,0.2c0.1,0.1,0.1,0.3,0.2,0.4
			c0,0.1,0.1,0.1,0.1,0.2c0.2,0.4,0.4,0.7,0.6,1.1c0,0.1,0.1,0.1,0.1,0.2c0.1,0.1,0.2,0.2,0.2,0.4l0.1,0.2c0.1,0.1,0.2,0.2,0.3,0.4
			c0,0,0.1,0.1,0.1,0.1c0.3,0.3,0.5,0.6,0.8,0.9l0.1,0.1c0.1,0.1,0.2,0.2,0.3,0.3l0.1,0.1c0.1,0.1,0.2,0.2,0.3,0.3l0.1,0.1
			c0.2,0.1,0.3,0.2,0.5,0.4c0.1,0.1,0.3,0.2,0.4,0.3l0,0c1.7,1.1,3.7,1.6,5.7,1.6h18.6v18.6c0,0.2,0,0.4,0,0.7c0,0.1,0,0.1,0,0.2
			c0,0.1,0,0.3,0,0.4c0,0.1,0,0.2,0,0.2c0,0.1,0,0.3,0.1,0.4c0,0.1,0,0.2,0,0.2c0,0.1,0.1,0.3,0.1,0.4c0,0.1,0,0.1,0.1,0.2
			c0,0.1,0.1,0.3,0.1,0.4c0,0.1,0,0.1,0.1,0.2c0.1,0.2,0.1,0.4,0.2,0.6l0,0c0.1,0.2,0.2,0.4,0.2,0.6c0,0.1,0.1,0.1,0.1,0.2
			c0.1,0.1,0.1,0.3,0.2,0.4c0,0.1,0.1,0.1,0.1,0.2c0.1,0.1,0.1,0.2,0.2,0.4c0,0.1,0.1,0.1,0.1,0.2c0.1,0.1,0.2,0.2,0.2,0.4l0.1,0.1
			c0.1,0.1,0.2,0.3,0.3,0.4l0.1,0.1c0.1,0.2,0.3,0.3,0.4,0.5l0,0c0.1,0.1,0.3,0.3,0.4,0.4l0.1,0.1c0.1,0.1,0.2,0.1,0.2,0.2
			c0,0,0.1,0.1,0.1,0.1l0.1,0.1c1.7,1.5,3.8,2.4,6,2.6h0c0.1,0,0.2,0,0.4,0l0.1,0c0.1,0,0.2,0,0.3,0s0.2,0,0.3,0h0.1h13
			c3,0,5.8-1.2,7.9-3.3C84.5,107,83.9,106.9,83.3,106.7z"/>
	</g>
</g>
</svg>
