<?xml version="1.0" encoding="utf-8"?>
<!-- Generator: Adobe Illustrator 24.3.0, SVG Export Plug-In . SVG Version: 6.00 Build 0)  -->
<svg version="1.1" id="Warstwa_1" xmlns="http://www.w3.org/2000/svg" xmlns:xlink="http://www.w3.org/1999/xlink" x="0px" y="0px"
	 viewBox="0 0 141.7 141.7" style="enable-background:new 0 0 141.7 141.7;" xml:space="preserve">
<style type="text/css">
	.st0{fill:#2F3634;}
	.st1{fill:#6E8A37;}
</style>
<g id="Group_116" transform="translate(-1987.006 -930.909)">
	<path id="Path_142" class="st0" d="M2041.6,1020.1h-5.9c-1.1,0-2,0.9-2,2v13c0,1.1,0.9,2,2,2h5.9c1.1,0,2-0.9,2-2v-13
		C2043.6,1020.9,2042.7,1020.1,2041.6,1020.1z M2039.6,1033h-2v-9h2V1033z"/>
	<path id="Path_143" class="st0" d="M2055.1,1003.6h-5.9c-1.1,0-2,0.9-2,2v29.4c0,1.1,0.9,2,2,2h5.9c1.1,0,2-0.9,2-2v-29.4
		C2057.1,1004.5,2056.2,1003.6,2055.1,1003.6z M2053.1,1033h-2v-25.5h2V1033z"/>
	<path id="Path_144" class="st0" d="M2068.5,1015.7h-5.9c-1.1,0-2,0.9-2,2v17.3c0,1.1,0.9,2,2,2h5.9c1.1,0,2-0.9,2-2v-17.3
		C2070.5,1016.6,2069.6,1015.7,2068.5,1015.7z M2066.6,1033h-2v-13.4h2V1033z"/>
	<path id="Path_145" class="st0" d="M2082,1009.1h-5.9c-1.1,0-2,0.9-2,2v23.9c0,1.1,0.9,2,2,2h5.9c1.1,0,2-0.9,2-2v-23.9
		C2084,1010,2083.1,1009.1,2082,1009.1z M2080,1033h-2v-19.9h2V1033z"/>
	<path id="Path_146" class="st1" d="M2072.6,978l1.6,3.8l6.6-2.3l-14.2,16.9l-12-12.9l-14.2,13.1l3.2,2.9l10.7-9.9l12.4,13.3
		l17.7-21.1v7.7h4.5v-17.2L2072.6,978z"/>
	<path id="Path_147" class="st1" d="M2033.9,1003l3,2.9l4.1-4l-3-2.9L2033.9,1003z"/>
	<path id="Path_148" class="st1" d="M2030.1,1012.5l-3-2.9l3.4-3.3l3,2.9L2030.1,1012.5z"/>
</g>
</svg>
