<?xml version="1.0" encoding="utf-8"?>
<!-- Generator: Adobe Illustrator 24.3.0, SVG Export Plug-In . SVG Version: 6.00 Build 0)  -->
<svg version="1.1" id="Warstwa_1" xmlns="http://www.w3.org/2000/svg" xmlns:xlink="http://www.w3.org/1999/xlink" x="0px" y="0px"
	 viewBox="0 0 141.7 141.7" style="enable-background:new 0 0 141.7 141.7;" xml:space="preserve">
<style type="text/css">
	.st0{fill:#2F3634;}
	.st1{fill:#6E8A37;}
</style>
<g id="Group_112" transform="translate(-2114.734 -184.18)">
	<path id="Path_122" class="st0" d="M2207.4,284.6c0,1-0.8,1.9-1.9,1.9H2166c-1,0-1.9-0.9-1.9-1.9v-49c0-1,0.8-1.9,1.9-1.9h7.6v1.7
		c0,1.9,1.5,3.4,3.4,3.4h17.4c1.9,0,3.4-1.5,3.4-3.4v-1.7h7.6c1,0,1.9,0.9,1.9,1.9V284.6z M2185.8,222.1c1.9,0,3.7,1.2,4.4,3h-8.7
		C2182.1,223.3,2183.8,222.1,2185.8,222.1 M2177.4,228.9h16.7v6.2h-16.7L2177.4,228.9z M2205.5,230h-7.6v-1.5c0-1.9-1.5-3.4-3.4-3.4
		h-0.4c-0.9-4.6-5.4-7.5-10-6.6c-3.3,0.7-5.9,3.3-6.6,6.6h-0.4c-1.9,0-3.4,1.5-3.4,3.4v1.5h-7.6c-3.1,0-5.7,2.5-5.7,5.7v49
		c0,3.1,2.5,5.7,5.7,5.7h39.5c3.1,0,5.7-2.5,5.7-5.7v-49C2211.2,232.5,2208.7,230,2205.5,230"/>
	<path id="Path_123" class="st0" d="M2188.6,245.6H2173c-1,0-1.9,0.9-1.9,1.9c0,1,0.8,1.9,1.9,1.9h15.7c1,0,1.9-0.8,1.9-1.9
		C2190.5,246.4,2189.7,245.6,2188.6,245.6C2188.6,245.6,2188.6,245.6,2188.6,245.6"/>
	<path id="Path_124" class="st0" d="M2188.6,255.3H2173c-1,0-1.9,0.9-1.9,1.9c0,1,0.8,1.9,1.9,1.9h15.7c1,0,1.9-0.8,1.9-1.9
		C2190.5,256.1,2189.7,255.3,2188.6,255.3C2188.6,255.3,2188.6,255.3,2188.6,255.3"/>
	<path id="Path_125" class="st0" d="M2188.6,265H2173c-1,0-1.9,0.9-1.9,1.9c0,1,0.8,1.9,1.9,1.9h15.7c1,0,1.9-0.8,1.9-1.9
		C2190.5,265.9,2189.7,265,2188.6,265C2188.6,265,2188.6,265,2188.6,265"/>
	<path id="Path_126" class="st0" d="M2188.6,274.8H2173c-1,0-1.9,0.9-1.9,1.9c0,1,0.8,1.9,1.9,1.9h15.7c1,0,1.9-0.8,1.9-1.9
		C2190.5,275.6,2189.7,274.8,2188.6,274.8C2188.6,274.8,2188.6,274.8,2188.6,274.8"/>
	<path id="Path_127" class="st1" d="M2195.8,248.7c0.5,0.5,1.2,0.7,1.8,0.7l0.2,0c0.7,0,1.4-0.4,1.9-0.9l2.6-3.1
		c0.5-0.5,0.4-1.3-0.1-1.8s-1.3-0.4-1.8,0.1l-2.6,3.1l-0.1,0.1l-0.2-0.1l-1.7-1.5c-0.5-0.5-1.3-0.4-1.8,0.1
		c-0.5,0.5-0.4,1.3,0.1,1.8l0,0L2195.8,248.7z"/>
	<path id="Path_128" class="st1" d="M2200.4,253.8l-2.6,3.1l-0.1,0.1l-0.2-0.1l-1.7-1.5c-0.5-0.5-1.3-0.4-1.8,0.1s-0.4,1.3,0.1,1.8
		l1.7,1.5c0.5,0.5,1.2,0.7,1.8,0.7h0.2c0.7,0,1.4-0.4,1.9-1l2.6-3.1c0.5-0.5,0.4-1.3-0.1-1.8
		C2201.7,253.2,2200.9,253.3,2200.4,253.8C2200.4,253.8,2200.4,253.8,2200.4,253.8"/>
	<path id="Path_129" class="st1" d="M2200.4,273l-2.6,3.1l-0.1,0.1l-0.2-0.1l-1.7-1.5c-0.5-0.5-1.3-0.4-1.8,0.1
		c-0.5,0.5-0.4,1.3,0.1,1.8l1.7,1.5c0.5,0.5,1.2,0.7,1.8,0.7l0.2,0c0.7,0,1.4-0.4,1.9-0.9l2.6-3.1c0.5-0.5,0.4-1.3-0.1-1.8
		C2201.7,272.4,2200.9,272.5,2200.4,273C2200.4,273,2200.4,273,2200.4,273"/>
	<path id="Path_130" class="st1" d="M2200.4,264l-2.6,3.1l-0.1,0.1l-0.2-0.1l-1.7-1.5c-0.5-0.5-1.3-0.4-1.8,0.1
		c-0.5,0.5-0.4,1.3,0.1,1.8l1.7,1.5c0.5,0.5,1.2,0.7,1.8,0.7h0.2c0.7,0,1.4-0.4,1.9-0.9l2.6-3.1c0.5-0.5,0.4-1.3-0.1-1.8
		C2201.7,263.4,2200.9,263.4,2200.4,264C2200.4,264,2200.4,264,2200.4,264"/>
</g>
</svg>
