<?xml version="1.0" encoding="utf-8"?>
<!-- Generator: Adobe Illustrator 24.3.0, SVG Export Plug-In . SVG Version: 6.00 Build 0)  -->
<svg version="1.1" id="Warstwa_1" xmlns="http://www.w3.org/2000/svg" xmlns:xlink="http://www.w3.org/1999/xlink" x="0px" y="0px"
	 viewBox="0 0 141.7 141.7" style="enable-background:new 0 0 141.7 141.7;" xml:space="preserve">
<style type="text/css">
	.st0{fill:#6E8A37;}
	.st1{fill:#2F3634;}
	.st2{fill-rule:evenodd;clip-rule:evenodd;fill:#2F3634;}
</style>
<g>
	<path id="Path_102" class="st0" d="M124.9,90.3c-1.2-0.8-2.6-1.2-4-1.2h-8.4v-8.4c0-3.8-3-7-6.8-7.2c-0.1,0-0.1,0-0.2,0h-0.1h-0.2
		h-6.9c-4,0-7.2,3.2-7.2,7.2v8.4h-8.4c-4,0-7.2,3.2-7.2,7.2v6.8c0,4,3.2,7.2,7.2,7.2h8.4v8.4c0,3.8,3,7,6.8,7.2c0.1,0,0.1,0,0.2,0
		h7.1c4,0,7.2-3.2,7.2-7.2v-8.4h8.4c4,0,7.2-3.2,7.2-7.2v-6.8C128.1,93.9,126.9,91.7,124.9,90.3z M123.3,103.3c0,0,0,0.1,0,0.1
		l0,0.1c-0.2,1.2-1.2,2.1-2.4,2.1H110c-0.6,0-1.2,0.2-1.6,0.7l0,0c-0.4,0.4-0.7,1-0.7,1.6v11.1c0,0.1,0,0.1,0,0.1v0c0,0,0,0.1,0,0.1
		c0,0.1,0,0.1,0,0.1l0,0c0,0,0,0.1,0,0.1v0c0,0,0,0.1,0,0.1l0,0c0,0,0,0.1,0,0.1l0,0c0,0,0,0.1,0,0.1l-0.1,0.2
		c-0.3,0.5-0.8,0.9-1.4,1.1l-0.1,0l-0.1,0l-0.1,0h0l-0.1,0h0c-0.1,0-0.1,0-0.1,0h-6.8c-1.3,0-2.4-1.1-2.4-2.4c0,0,0,0,0,0v-10.9
		c0-1.2-1-2.2-2.2-2.2H82.9c-0.5,0-0.9-0.1-1.3-0.4c-0.7-0.4-1.1-1.1-1.1-1.9v-0.1c0-0.1,0-0.1,0-0.2v-6.7c0,0,0-0.1,0-0.1
		s0-0.1,0-0.1l0-0.1c0.2-1.2,1.2-2.1,2.4-2.1h10.9c1.2,0,2.2-1,2.2-2.2V80.6c0-0.1,0-0.1,0-0.1v0c0,0,0-0.1,0-0.1c0-0.1,0-0.1,0-0.1
		l0,0c0,0,0-0.1,0-0.1l0.1-0.2c0,0,0-0.1,0-0.1l0,0c0,0,0-0.1,0.1-0.1l0.1-0.1c0.3-0.5,0.8-0.9,1.4-1.1l0.1,0l0.1,0l0.1,0h0l0.1,0h0
		c0.1,0,0.1,0,0.2,0h6.8c1.3,0,2.4,1.1,2.4,2.4c0,0,0,0,0,0v10.9c0,1.2,1,2.2,2.2,2.2h10.9c0.5,0,0.9,0.1,1.3,0.4
		c0.7,0.4,1.1,1.1,1.1,1.9v0.1c0,0.1,0,0.1,0,0.2v6.7C123.3,103.2,123.3,103.2,123.3,103.3L123.3,103.3z"/>
	<path id="Path_103" class="st1" d="M82.2,47.5c0.2-1.7-0.9-3.4-2.6-3.9c0-0.7,0.1-1.4,0.1-2.1c0.1-1.9,0.3-3.9,0.3-5.9
		c0.2-3.4-0.6-6.8-2.3-9.8c-2.7-4.7-7.1-7.7-13.3-9.1c-0.7-0.2-1.5-0.3-2.2-0.4c-0.3-0.1-0.7-0.1-1-0.2l-4.8,0l-0.1,0
		c-0.1,0-0.2,0-0.3,0.1c-0.1,0-0.3,0.1-0.4,0.1c-2.9,0.3-5.8,1.1-8.4,2.5c-4.3,2-7.5,5.8-8.9,10.3c-0.9,3.3-1.1,6.8-0.7,10.3
		c0.1,1.1,0.2,2.2,0.3,3.3c0,0.3,0.1,0.6,0.1,0.8c-1.6,0.4-2.7,1.9-2.6,3.6c-0.3,3,0.6,5.9,2.5,8.2c0.8,1.1,1.5,2.2,2.1,3.5
		c0.1,0.2,0.2,0.4,0.3,0.6c1.8,3.9,4.4,7.5,7.5,10.5c3,2.8,6.8,4.3,10.9,4.3c0.8,0,1.5-0.1,2.3-0.2c3.9-0.6,7.4-2.5,10-5.4
		c3.1-3.4,5.5-7.3,7.3-11.6c0.1-0.3,0.3-0.5,0.5-0.8C81.2,54,82.4,50.8,82.2,47.5z M43.9,49.2c-0.1-0.7-0.3-1.4-0.4-2.1
		c-0.3-1.5-0.5-3-0.7-4.4c-0.1-1.2-0.2-2.4-0.2-3.5c0-0.5,0-0.9-0.1-1.4c0-0.1,0-0.1,0-0.2l0,0c1.8-3.8,3.8-5.8,6.8-6.5
		c0.5-0.1,0.6-0.1,0.9,0.2c4.6,4.6,10.6,7.6,17.1,8.4c1.7,0.2,3.4,0.4,5,0.5c0.7,0.1,1.5,0.1,2.2,0.2c0.2,0,0.4,0,0.6,0.1
		c-0.5,2.9-0.9,5.8-1.4,8.7L73,53.9l2.1-4.3c0.1-0.3,0.3-0.6,0.4-0.8c0.3-0.6,0.5-1.1,0.8-1.6l0.1-0.1c0.4-0.7,0.5-0.8,0.8-0.7
		c0.6,0.1,0.7,0.8,0.8,1.1c0.2,2.1-0.5,4.2-2,5.8c-0.5,0.6-1,1.2-1.3,1.9l-0.5,1c-1.3,3-2.8,5.8-4.6,8.4c-3.9,5.4-11.2,7.1-17,4
		c-2.6-1.5-4.7-3.7-6-6.4c-0.8-1.5-1.6-3.1-2.3-4.6c-0.4-0.8-0.8-1.7-1.3-2.6c-0.3-0.6-0.6-1.1-1.1-1.6c-1.5-1.6-2.3-3.7-2.2-5.9
		c0-0.2,0.1-0.4,0.1-0.6c0.2-0.5,0.4-0.7,0.6-0.7h0c0.1,0,0.3,0.1,0.6,0.5c0.4,0.6,0.7,1.3,1,1.9c0.2,0.3,0.3,0.6,0.5,1l2.2,4.1
		L43.9,49.2z"/>
	<path id="Path_104" class="st2" d="M58.7,95.6c-1.9-1.1-3.6-2.6-4.9-4.4c-0.2-0.3-0.2-0.6-0.1-0.9c1-2.4,2.1-4.9,3.1-7.3
		c0.2-0.4,0.1-0.6-0.3-0.9c-1-0.9-1.9-1.9-2.8-3c-0.1-0.2-0.1-0.5,0-0.8c0.6-0.7,1.3-1.3,2-1.9c0.2-0.1,0.5-0.2,0.7-0.2
		c1.2,0,2.4,0.1,3.7,0c0.9-0.1,1.8,0.3,2.3,0.9c1.7,1.7,1.6,1.3,0.2,3c-0.7,0.8-1.5,1.5-2.4,2.4c0.7,1.6,1.5,3.4,2.2,5.2
		c0.3,0.8,0.7,1.6,1.1,2.4c0.2,0.4,0.2,0.8-0.1,1.1C62.2,93,60.6,94.5,58.7,95.6z"/>
	<path id="Path_105" class="st1" d="M84.8,78.1L84.8,78.1L84.8,78.1c-0.2-0.1-0.4-0.1-0.5-0.2c-0.9-0.3-2-0.6-3.4-1
		c-1.4-0.4-2.9-0.9-4.3-1.3c-0.8-0.2-1.6-0.5-2.4-0.8l-3.8-1.2l0.4,3.6c0,0.2,0,0.4,0.1,0.6c0,0.2,0,0.3,0,0.4
		c0.4,2.3,0.1,4.6-0.6,6.7c-2.4,5.8-6.3,10.9-11.3,14.7c-4.6-3.5-8.2-8-10.7-13.2c-1-2.1-1.5-4.4-1.3-6.7c0-0.5,0.1-1.1,0.1-1.6
		c0-0.3,0-0.6,0.1-0.8l0.2-3.4l-3.2,1c-1.1,0.3-2.3,0.7-3.4,1c-2.6,0.7-5.2,1.5-7.8,2.4c-3.3,1-6.4,2.3-9.5,3.7
		c-2.1,1-4,2.4-5.5,4.2c-2,2.6-3.2,5.7-3.6,9c0,0.3-0.1,0.6-0.1,1c0,0.2-0.1,0.4-0.1,0.5l0,0.2v6.9v0.2c0.2,1.3,0.7,2.5,1.6,3.5
		c0.9,1.1,3.5,3.2,5.2,3.3h0.1H69c0.1,0,0.1,0,0.2,0c1.3,0,2.4-1.1,2.4-2.4c0-1.3-1.1-2.4-2.4-2.4h0l0,0H21.3
		c-0.8-0.5-1.6-1-2.2-1.7c-0.2-0.2-0.3-0.5-0.4-0.8v-6.3c0-0.1,0-0.2,0-0.3c0.1-0.4,0.1-0.7,0.1-1.1c0.3-2.4,1.2-4.7,2.7-6.6
		c1-1.2,2.3-2.2,3.7-2.8c2.9-1.3,5.9-2.5,9-3.5c2.5-0.8,4.9-1.5,7.6-2.3l0.2-0.1c-0.1,2.9,0.6,5.7,1.8,8.3
		c2.8,6.1,7.2,11.3,12.6,15.3c1.3,1,3.2,1,4.6,0c6-4.3,10.6-10.2,13.4-17c0.8-2.1,1.2-4.3,1.1-6.5c1.3,0.4,2.5,0.8,3.8,1.2
		c1.4,0.4,2.4,0.7,3.3,1c1.2,0.6,2.6,0.1,3.2-1.1C86.5,80.1,86,78.7,84.8,78.1C84.8,78.1,84.8,78.1,84.8,78.1L84.8,78.1z"/>
</g>
</svg>
