<?xml version="1.0" encoding="utf-8"?>
<!-- Generator: Adobe Illustrator 24.3.0, SVG Export Plug-In . SVG Version: 6.00 Build 0)  -->
<svg version="1.1" id="Warstwa_1" xmlns="http://www.w3.org/2000/svg" xmlns:xlink="http://www.w3.org/1999/xlink" x="0px" y="0px"
	 viewBox="0 0 141.7 141.7" style="enable-background:new 0 0 141.7 141.7;" xml:space="preserve">
<style type="text/css">
	.st0{fill:#2F3634;}
	.st1{fill:#6E8A37;}
</style>
<g id="Group_120" transform="translate(-4082.59 856.62)">
	<path id="Path_156" class="st0" d="M4162.4-803.9c-0.6-0.1-1.2,0.1-1.6,0.5c-0.4,0.5-0.6,1.1-0.5,1.7c0,1.3,0,2.6,0,3.8
		c0,0.7,0,1.5,0,2.2c0,1.7,0.5,2.9,1.3,3.4s2.1,0.5,3.6-0.2c2-0.9,4.4-0.3,5.8,1.3c1.4,1.7,1.5,4.1,0.2,6c-1.3,2-3.8,2.7-5.9,1.7
		c-1.1-0.7-2.5-0.7-3.6-0.1c-1.1,0.8-1.6,2.1-1.4,3.4c0.1,1.2,0.1,2.3,0,3.5c0,0.4,0,0.9,0,1.3h-5.4c1.6-4.1,0.7-7.5-2.8-10.2
		c-2.7-2.1-6.4-2.1-9.1-0.1c-3.6,2.5-4.6,6-2.9,10.4h-1.6c-1.6,0-3.1,0-4.6,0c-2.1,0-2.5,0.4-2.5,2.5c0,3.4,0,6.7,0,10.1
		c0,3.1,0,6.1,0,9.2v0c-0.1,2.7,0.9,5.4,2.8,7.4c2,1.9,4.7,2.9,7.4,2.8c8.1,0,16.2,0,24.2-0.1l12.1,0c0.5,0,1,0,1.5,0c1,0,2,0,3,0
		c5.1-0.2,9.5-4.4,9.5-9.2c0-3.9,0-7.8,0-11.6c0-10.2,0-20.3-0.1-30.2c-0.1-5.1-4.1-9.3-9.2-9.5c-4.2-0.1-8.6,0-12.7,0
		C4167.6-803.9,4165-803.9,4162.4-803.9z M4140.1-771.9c1.2,0.1,2.4-0.4,3.2-1.3c0.6-1.1,0.5-2.4-0.2-3.5c-0.9-1.8-0.6-4,0.8-5.5
		c1.3-1.4,3.4-1.9,5.2-1.1c1.2,0.4,2.2,1.2,2.7,2.4c0.6,1.3,0.6,2.8,0.1,4.1c-0.7,1.8-0.7,3-0.2,3.8s1.7,1.2,3.6,1.2h4.5v5.1
		c-4.8-1-8-0.1-10.1,3c-1.9,2.7-2,6.3-0.2,9.1c2.2,3.4,4.9,4.2,10.5,3.1v5.1l-0.2,0c-0.3,0-0.6,0.1-0.9,0.1c-5.8,0-11.5,0-17.3,0
		c-4.7,0-7-2.3-7-7c0-4.3,0-8.5,0-13c0-1.8,0-3.6,0-5.4h1.5C4137.7-771.9,4138.9-771.9,4140.1-771.9z M4169.2-746.6
		c-1.9,0-3.8,0-5.7,0v-1.4c0-1.2,0-2.4,0-3.5c0-1.7-0.4-2.8-1.3-3.4s-2.1-0.5-3.7,0.1c-1.8,0.9-3.9,0.5-5.4-1
		c-1.5-1.3-1.9-3.4-1.1-5.2c0.4-1.2,1.3-2.1,2.4-2.6c1.2-0.6,2.6-0.6,3.8-0.1c1.8,0.7,3.1,0.8,3.9,0.2s1.3-1.8,1.3-3.7v0
		c0-1.1,0-2.1,0-3.3v-1.3h5.1c-1.1,5.3-0.2,8.3,3.3,10.5c3,1.8,6.8,1.6,9.5-0.7c2.8-2.2,3.5-5.6,2.2-9.8h5.3v5.5c0,1.3,0,2.7,0,4
		c0,3,0,6.1,0,9.2c0,3.9-2.2,6.3-5.7,6.4C4178.6-746.6,4174.1-746.6,4169.2-746.6L4169.2-746.6z M4188.7-775.2c-0.5,0-0.9,0-1.4,0
		c-1.2,0.1-2.3,0-3.5-0.1c-1.3-0.2-2.6,0.3-3.3,1.3c-0.7,1.1-0.7,2.6,0,3.7c1,2.1,0.3,4.7-1.7,6c-2,1.3-4.6,0.9-6.2-0.8
		c-1.3-1.4-1.6-3.5-0.8-5.2c0.6-1.5,0.7-2.7,0.1-3.6s-1.7-1.3-3.3-1.3c-1.2,0-2.4,0-3.6,0h-1.3v-5.3c4.9,1.2,8,0.3,10.1-2.7
		c2-2.8,2-6.6,0.1-9.4c-2.3-3.2-5.4-4.1-10.3-2.8v-5.2l0.1,0c0.3,0,0.5-0.1,0.8-0.1h2.9c4.9,0,9.9,0,14.9,0c4.1,0,6.4,2.2,6.5,6.1
		c0.1,4.5,0.1,9.2,0.1,13.6c0,1.8,0,3.6,0,5.4C4188.8-775.4,4188.8-775.3,4188.7-775.2C4188.8-775.2,4188.8-775.2,4188.7-775.2
		L4188.7-775.2z"/>
	<path id="Path_157" class="st1" d="M4121.4-813c-4.5,2.4-6.4,7.8-4.3,12.5c1.9,3.8,3.8,7.6,5.7,11.3c1.2,2.3,2.4,4.7,3.6,7.1
		c0.2,0.6,0.7,1,1.2,1.2c0.6,0.1,1.2,0,1.7-0.3c1.1-0.6,2.2-1.1,3.3-1.7c0.8-0.4,1.6-0.8,2.4-1.2c1.1-0.4,2-1.4,2.2-2.6
		c0-1.2-0.6-2.4-1.7-3c-1.8-1.4-2.5-3.8-1.6-5.9c0.9-2.1,3.1-3.3,5.3-2.9c2.4,0.4,4.1,2.4,4.1,4.8c0,1.2,0.5,2.3,1.5,3
		c1.1,0.5,2.4,0.4,3.4-0.2c0.8-0.4,1.6-0.8,2.3-1.1c1.1-0.5,2.2-1.1,3.3-1.6c0.6-0.2,1.2-0.7,1.4-1.3c0.2-0.7,0-1.4-0.4-2
		c-0.7-1.3-1.4-2.6-2.1-4c-0.2-0.5-0.5-0.9-0.7-1.4c4.8-1,7.2-3.2,7.8-7.1c0.3-1.6,0-3.3-0.7-4.8c-0.8-1.5-2-2.6-3.5-3.4
		c-2.9-1.5-6.2-2.2-10.4,2.1c-0.2-0.5-0.5-1-0.7-1.4c-0.7-1.4-1.4-2.7-2-4.1c-0.2-0.6-0.7-1.2-1.3-1.4c-0.6-0.2-1.3-0.1-1.8,0.3
		c-2.3,1.2-4.7,2.4-7,3.5C4128.8-816.8,4125.1-814.9,4121.4-813z M4145.1-811.9c1.2,0,2.4-0.6,3-1.7c1.4-1.8,3.8-2.4,5.9-1.5
		c2,1,3.1,3.2,2.8,5.4c-0.4,2.2-2.3,3.8-4.5,3.9c-1.8,0.2-2.9,0.7-3.4,1.6s-0.3,2.1,0.5,3.7c0.3,0.5,0.6,1.1,0.8,1.6
		c0.2,0.4,0.5,0.9,0.7,1.4l0.6,1.1l-4.7,2.4c-0.8-5-3.4-7.6-7.9-7.9c-3.3-0.3-6.4,1.6-7.7,4.6c-1.7,3.8-0.9,7.2,2.4,10.1l-4.7,2.4
		l0-0.1c-0.1-0.2-0.3-0.4-0.4-0.6c-0.6-1.2-1.2-2.4-1.9-3.6c-2.1-4-4.2-8.2-6.3-12.3c-1.8-3.6-0.9-6.7,2.4-8.5c4-2.2,8-4.2,12.2-6.3
		c1.7-0.8,3.4-1.7,5.1-2.6l0.6,1.3c0.6,1.2,1.1,2.2,1.7,3.4C4142.8-813,4143.8-812.1,4145.1-811.9z"/>
</g>
</svg>
