<?xml version="1.0" encoding="utf-8"?>
<!-- Generator: Adobe Illustrator 24.3.0, SVG Export Plug-In . SVG Version: 6.00 Build 0)  -->
<svg version="1.1" id="Warstwa_1" xmlns="http://www.w3.org/2000/svg" xmlns:xlink="http://www.w3.org/1999/xlink" x="0px" y="0px"
	 viewBox="0 0 141.7 141.7" style="enable-background:new 0 0 141.7 141.7;" xml:space="preserve">
<style type="text/css">
	.st0{fill:#2F3634;}
	.st1{fill:#6E8A37;}
</style>
<g>
	<path id="Path_91" class="st0" d="M81.1,46.4c3.1,0,5.7-2.5,5.7-5.7c0-3.1-2.5-5.7-5.7-5.7c-3.1,0-5.7,2.5-5.7,5.7
		c0,1,0.3,2,0.8,2.9l0.1,0.2l-8,11.1l-0.2,0c-0.4-0.1-0.8-0.1-1.2-0.1c-1.2,0-2.4,0.4-3.4,1.1l-0.2,0.1l-4.9-2.8l0-0.2
		c0-0.2,0-0.4,0-0.6c0-3.1-2.5-5.7-5.7-5.7c-3.1,0-5.7,2.5-5.7,5.7c0,0.2,0,0.4,0,0.6l0,0.2l-4.9,2.8l-0.2-0.1
		c-1-0.7-2.2-1.1-3.4-1.1c-3.1,0-5.7,2.5-5.7,5.7c0,3.1,2.5,5.7,5.7,5.7c3.1,0,5.7-2.5,5.7-5.7c0-0.2,0-0.4,0-0.6l0-0.2l4.9-2.8
		l0.2,0.1c1,0.7,2.2,1.1,3.4,1.1c1.2,0,2.4-0.4,3.4-1.1l0.2-0.1l4.9,2.8l0,0.2c0,0.2,0,0.4,0,0.6c0,3.1,2.5,5.7,5.7,5.7
		c3.1,0,5.7-2.5,5.7-5.7c0-1-0.3-2-0.8-2.9l-0.1-0.2l8-11.1l0.2,0C80.3,46.4,80.7,46.4,81.1,46.4z M38.8,62c-0.8,0-1.5-0.7-1.5-1.5
		c0-0.8,0.7-1.5,1.5-1.5c0.8,0,1.5,0.7,1.5,1.5C40.3,61.3,39.6,62,38.8,62C38.8,62,38.8,62,38.8,62z M54,53.5
		c-0.3,0.3-0.7,0.4-1.1,0.4c-0.8,0-1.5-0.7-1.5-1.5c0-0.8,0.7-1.5,1.5-1.5c0.8,0,1.5,0.7,1.5,1.5C54.4,52.9,54.3,53.2,54,53.5z
		 M67,62c-0.8,0-1.5-0.7-1.5-1.5c0-0.8,0.7-1.5,1.5-1.5c0.8,0,1.5,0.7,1.5,1.5C68.5,61.3,67.9,62,67,62z M79.6,40.8
		c0-0.4,0.2-0.8,0.4-1.1l0,0c0.3-0.3,0.7-0.4,1.1-0.4c0.8,0,1.5,0.7,1.5,1.5c0,0.8-0.7,1.5-1.5,1.5C80.3,42.3,79.6,41.6,79.6,40.8
		L79.6,40.8z"/>
	<path id="Path_92" class="st0" d="M104.2,39.2c1.1,0,2.1-0.9,2.1-2.1v-5.9c0-2.7-2.2-4.9-4.9-4.9H69v-2.5c0-2.4-2-4.4-4.4-4.4h-9.4
		c-2.4,0-4.4,2-4.4,4.4v2.5H18.5c-2.7,0-4.9,2.2-4.9,4.9v63.4c0,2.7,2.2,4.9,4.9,4.9h10.1v2.8c0,2.2,1.8,4,4,4l0,0h14.5l-6.8,13.4
		c-0.5,1-0.1,2.3,0.9,2.8c0.3,0.1,0.6,0.2,0.9,0.2c0.8,0,1.5-0.4,1.8-1.1l7.8-15.3h16.3l7.8,15.3c0.4,0.7,1.1,1.1,1.8,1.1
		c0.3,0,0.7-0.1,0.9-0.2c0.5-0.2,0.9-0.7,1-1.2c0.2-0.5,0.1-1.1-0.1-1.6l-6.8-13.4h14.5c2.2,0,4-1.8,4-4c0,0,0,0,0,0v-2.8h4.3
		c1.1,0,2.1-0.9,2.1-2.1c0-1.1-0.9-2.1-2.1-2.1H18.5c-0.4,0-0.7-0.3-0.7-0.7V31.2c0-0.4,0.3-0.7,0.7-0.7h82.9c0.4,0,0.7,0.3,0.7,0.7
		v5.9C102.2,38.3,103.1,39.2,104.2,39.2C104.2,39.2,104.2,39.2,104.2,39.2z M32.7,99.5h54.5v2.7H32.7V99.5z M64.9,26.3h-9.8v-2.7
		h9.8V26.3z"/>
	<path id="Path_93" class="st0" d="M41.9,72.9h-6.2c-1.1,0-2.1,0.9-2.1,2.1v13.6c0,1.1,0.9,2.1,2.1,2.1h6.2c1.1,0,2.1-0.9,2.1-2.1
		V75C44,73.8,43.1,72.9,41.9,72.9z M39.9,86.5h-2.1v-9.4h2.1V86.5z"/>
	<path id="Path_94" class="st0" d="M56,65.1h-6.2c-1.1,0-2.1,0.9-2.1,2.1v21.4c0,1.1,0.9,2.1,2.1,2.1H56c1.1,0,2.1-0.9,2.1-2.1V67.1
		C58.1,66,57.2,65.1,56,65.1z M54,86.5h-2.1V69.2H54V86.5z"/>
	<path id="Path_95" class="st0" d="M70.2,72.9h-6.2c-1.1,0-2.1,0.9-2.1,2.1v13.6c0,1.1,0.9,2.1,2.1,2.1h6.2c1.1,0,2.1-0.9,2.1-2.1
		V75C72.2,73.8,71.3,72.9,70.2,72.9z M68.1,86.5H66v-9.4h2.1V86.5z"/>
	<path id="Path_96" class="st0" d="M78,82c-1.1,0-2.1,0.9-2.1,2.1v4.5c0,1.1,0.9,2.1,2.1,2.1h6.2c1.1,0,2.1-1,2-2.1c0-1.1-0.9-2-2-2
		h-4.2v-2.4C80.1,82.9,79.2,82,78,82z"/>
	<path id="Path_97" class="st1" d="M125.5,59.7c-1.1-0.7-2.4-1.1-3.7-1.1H114v-7.8c0-3.5-2.8-6.5-6.3-6.7c-0.1,0-0.1,0-0.2,0h-0.1
		h-0.2H101c-3.7,0-6.7,3-6.7,6.7v7.8h-7.8c-3.7,0-6.7,3-6.7,6.7v6.3c0,3.7,3,6.7,6.7,6.7h7.8V86c0,3.5,2.8,6.5,6.3,6.7
		c0.1,0,0.1,0,0.2,0h6.6c3.7,0,6.7-3,6.7-6.7v-7.8h7.8c3.7,0,6.7-3,6.7-6.7v-6.3C128.4,63,127.3,60.9,125.5,59.7z M124,71.6
		c0,0,0,0.1,0,0.1l0,0.1c-0.2,1.1-1.1,1.9-2.2,1.9h-10.1c-0.5,0-1.1,0.2-1.5,0.6l0,0c-0.4,0.4-0.6,0.9-0.6,1.5v10.3
		c0,0.1,0,0.1,0,0.1v0c0,0,0,0.1,0,0.1c0,0.1,0,0.1,0,0.1l0,0c0,0,0,0.1,0,0.1l0,0c0,0,0,0.1,0,0.1l0,0c0,0,0,0.1,0,0.1l0,0
		c0,0,0,0.1,0,0.1l-0.1,0.1c-0.3,0.5-0.8,0.8-1.3,1l-0.1,0l0,0l-0.1,0h0l-0.1,0h0c-0.1,0-0.1,0-0.1,0H101c-1.2,0-2.3-1-2.3-2.3
		c0,0,0,0,0,0V75.8c0-1.1-0.9-2.1-2.1-2.1H86.5c-0.4,0-0.8-0.1-1.2-0.3c-0.6-0.4-1-1-1.1-1.8v-0.1c0-0.1,0-0.1,0-0.2v-6.2
		c0,0,0-0.1,0-0.1c0,0,0-0.1,0-0.1l0-0.1c0.2-1.1,1.1-1.9,2.2-1.9h10.1c1.1,0,2.1-0.9,2.1-2.1V50.6c0-0.1,0-0.1,0-0.1v0
		c0,0,0-0.1,0-0.1c0-0.1,0-0.1,0-0.1l0,0c0,0,0-0.1,0-0.1l0.1-0.2c0,0,0-0.1,0-0.1l0,0c0,0,0-0.1,0.1-0.1l0.1-0.1
		c0.3-0.5,0.8-0.8,1.3-1l0.1,0l0,0l0.1,0h0l0.1,0h0c0.1,0,0.1,0,0.1,0h6.3c1.2,0,2.3,1,2.3,2.3c0,0,0,0,0,0v10.1
		c0,1.1,0.9,2.1,2.1,2.1h10.1c1.2,0,2.2,0.9,2.3,2.1v0.1c0,0.1,0,0.1,0,0.2v6.2C124,71.6,124,71.6,124,71.6L124,71.6z"/>
</g>
</svg>
