<?xml version="1.0" encoding="utf-8"?>
<!-- Generator: Adobe Illustrator 24.3.0, SVG Export Plug-In . SVG Version: 6.00 Build 0)  -->
<svg version="1.1" id="Warstwa_1" xmlns="http://www.w3.org/2000/svg" xmlns:xlink="http://www.w3.org/1999/xlink" x="0px" y="0px"
	 viewBox="0 0 141.7 141.7" style="enable-background:new 0 0 141.7 141.7;" xml:space="preserve">
<style type="text/css">
	.st0{fill:#2F3634;}
	.st1{fill:#6E8A37;}
</style>
<g id="Group_141" transform="translate(-1613.72 -1055.898)">
	<g id="Group_135" transform="translate(1647.784 1066.607)">
		<path id="Path_183" class="st0" d="M50.2,60.3c0.4-0.6,0.8-1.1,1.2-1.6c2.6-3.5,5.3-7,7.9-10.5c0.5-0.7,1.1-1.2,1.8-1.8
			c0.9-0.7,2.2-0.7,3,0.2c0.9,0.6,1.3,1.8,0.7,2.7c0,0,0,0,0,0c-0.6,1.2-1.3,2.3-2.1,3.4c-2.7,3.7-5.4,7.3-8.1,11L50.2,60.3z"/>
		<path id="Path_184" class="st0" d="M49,61.7c1.4,1.1,2.8,2.2,4.1,3.2c0.1,0.1,0.2,0.2,0.3,0.3c0,0.1-0.1,0.2-0.1,0.2
			c-2.8,2.8-2.8,2.8-5.6,5.6c-0.6,0.6-4.2,3.8-4.9,4.2c-0.3,0.2-0.6,0.2-0.9,0c-0.2-0.3-0.2-0.6-0.1-0.9c0.7-1.9,1.6-3.7,2.5-5.4
			C45.7,66.5,47.3,64.2,49,61.7z"/>
		<path id="Rectangle_126" class="st0" d="M60.8,56.7l4.1-5.9c0.2-0.3,0.7-0.4,1-0.2l0,0c0.3,0.2,0.4,0.7,0.2,1L62,57.5
			c-0.2,0.3-0.7,0.4-1,0.2l0,0C60.7,57.5,60.6,57,60.8,56.7z"/>
	</g>
	<path id="Path_185" class="st0" d="M1697.5,1143.1c0-0.7-0.6-1.3-1.4-1.3c-0.6,0-1.2,0.5-1.3,1.1h0v11.7c0,0.1-0.1,0.2-0.2,0.2
		h-36.5c-0.1,0-0.2-0.1-0.2-0.2v-50c0-0.1,0.1-0.2,0.2-0.2h36.5c0.1,0,0.2,0.1,0.2,0.2v18.2h0c0.2,0.7,0.9,1.1,1.6,1
		c0.5-0.1,0.8-0.5,1-1h0v-0.3c0,0,0,0,0,0s0,0,0,0v-17.8c0-1.6-1.3-2.8-2.8-2.8h-36.5c-1.6,0-2.8,1.3-2.8,2.8v50
		c0,1.6,1.3,2.8,2.8,2.8h36.5c1.6,0,2.8-1.3,2.8-2.8L1697.5,1143.1C1697.5,1143.2,1697.5,1143.2,1697.5,1143.1
		C1697.5,1143.1,1697.5,1143.1,1697.5,1143.1L1697.5,1143.1z"/>
	<g id="Group_136" transform="translate(1619.714 1065.714)">
		<path id="Path_186" class="st1" d="M69.8,48.3h-27c-0.7,0-1.2-0.5-1.2-1.2c0-0.7,0.5-1.2,1.2-1.2c0,0,0,0,0,0h27
			c0.7,0,1.2,0.5,1.2,1.2C71,47.8,70.4,48.3,69.8,48.3z"/>
	</g>
	<g id="Group_137" transform="translate(1619.714 1071.372)">
		<path id="Path_187" class="st1" d="M69.8,48.3h-27c-0.7,0-1.2-0.5-1.2-1.2c0-0.7,0.5-1.2,1.2-1.2c0,0,0,0,0,0h27
			c0.7,0,1.2,0.5,1.2,1.2C71,47.8,70.4,48.3,69.8,48.3z"/>
	</g>
	<g id="Group_138" transform="translate(1619.714 1077.031)">
		<path id="Path_188" class="st1" d="M69.8,48.3h-27c-0.7,0-1.2-0.5-1.2-1.2c0-0.7,0.5-1.2,1.2-1.2c0,0,0,0,0,0h27
			c0.7,0,1.2,0.5,1.2,1.2C71,47.8,70.4,48.3,69.8,48.3z"/>
	</g>
	<g id="Group_139" transform="translate(1619.714 1082.689)">
		<path id="Path_189" class="st1" d="M69.8,48.3h-27c-0.7,0-1.2-0.5-1.2-1.2c0-0.7,0.5-1.2,1.2-1.2c0,0,0,0,0,0h27
			c0.7,0,1.2,0.5,1.2,1.2C71,47.8,70.4,48.3,69.8,48.3z"/>
	</g>
	<g id="Group_140" transform="translate(1631.549 1094.358)">
		<path id="Path_190" class="st1" d="M54.6,48.3H42.8c-0.7,0-1.2-0.5-1.2-1.2c0-0.7,0.5-1.2,1.2-1.2c0,0,0,0,0,0h11.8
			c0.7,0,1.2,0.5,1.2,1.2C55.8,47.8,55.3,48.3,54.6,48.3C54.7,48.3,54.6,48.3,54.6,48.3z"/>
	</g>
</g>
</svg>
