<?xml version="1.0" encoding="utf-8"?>
<!-- Generator: Adobe Illustrator 24.3.0, SVG Export Plug-In . SVG Version: 6.00 Build 0)  -->
<svg version="1.1" id="Warstwa_1" xmlns="http://www.w3.org/2000/svg" xmlns:xlink="http://www.w3.org/1999/xlink" x="0px" y="0px"
	 viewBox="0 0 141.7 141.7" style="enable-background:new 0 0 141.7 141.7;" xml:space="preserve">
<style type="text/css">
	.st0{fill:#2F3634;}
	.st1{fill:#789C4A;}
</style>
<g id="Group_127" transform="translate(-248.69 -1008.631)">
	<path id="Path_173" class="st0" d="M341.5,1093.5c0.9,1.1,1.3,1.2,2.6,0.5l3.2-1.6c2.4-1.2,4.8-2.4,7.2-3.6
		c1.2-0.6,1.4-1.2,0.8-2.4c-2.9-5.8-5.7-11.6-8.6-17.4c-0.2-0.8-0.9-1.3-1.7-1.1c-0.2,0.1-0.4,0.2-0.6,0.3l-2,1
		c-2.7,1.3-5.5,2.7-8.3,4.1c-0.5,0.2-0.9,0.5-1.2,1c-0.1,0.3-0.2,0.6-0.1,1c0,0.2,0,0.4,0,0.6l0,0.1l-0.1,0c-0.2,0-0.4,0.1-0.6,0.1
		c-0.5,0.2-1.1,0.2-1.6,0.3c-1.2,0-2.3-0.2-3.5-0.3c-0.4,0-0.9-0.1-1.3-0.1c-3.7-0.4-6.5,0.1-8.9,1.5c-0.3,0.2-0.7,0.4-1,0.5
		c-0.3,0.1-0.6,0.1-0.8,0.1c-1.4-0.4-3-0.4-4.4,0c-0.2,0.1-0.4,0.1-0.7,0.1c-1-0.3-1.9-0.6-2.9-0.9l-0.9-0.3l-0.2-0.1l0.2-0.5
		c0.1-0.2,0.1-0.3,0.2-0.4c0.7-1.4,0.5-1.9-0.8-2.6l-1.9-1c-2.8-1.4-5.6-2.8-8.5-4.2c-0.4-0.3-1-0.4-1.5-0.3c-0.5,0.2-0.8,0.6-1,1.1
		c-2.9,5.8-5.8,11.5-8.6,17.3c-0.3,0.4-0.4,1-0.3,1.5c0.2,0.5,0.6,0.8,1.1,1l2.9,1.4c2.4,1.2,5,2.4,7.4,3.7c0.7,0.5,1.6,0.5,2.2,0
		l0.2-0.1l0,0.2c0.1,0.4,0.2,0.8,0.2,1.2c0.2,1,0.4,1.9,0.6,2.9c0.1,0.5,0,0.9-0.2,1.3c-1.2,1.9-0.6,4.3,1.3,5.4
		c0.6,0.3,1.2,0.6,1.8,0.6c0.4,0,0.7,0.3,0.8,0.7c0.3,1,0.9,2,1.8,2.5c1.1,0.8,2.5,1,3.8,0.6l0.1,0l0.1,0.1c1.1,1.8,2.7,2.4,5,2.1
		c0,0,0.1,0,0.1,0c0.2,0,0.4,0.1,0.6,0.2c2.2,1.9,4,1.8,6.1-0.1l0.1-0.1l0.2,0.1c1.2,0.5,2.4,0.9,3.6,0.3c1.2-0.6,2-1.7,2.2-3l0-0.1
		l0.1,0l0.1,0c0.1,0,0.1,0,0.2,0c1.6,0.2,3.1-0.8,3.5-2.3c0.1-0.3,0.6-0.4,0.9-0.4h0c0.9,0.1,1.8-0.3,2.5-1c0.3-0.4,0.6-0.8,0.8-1.3
		c0.1-0.2,0.2-0.4,0.4-0.6l0.1-0.1l0.1,0c1.3,0.2,2.6-0.3,3.4-1.4c0.9-1.3,1.1-3,0.3-4.5l0-0.1l3.3-3.7L341.5,1093.5z M295.7,1091.3
		l-8.9-4.4l7.8-15.7l8.9,4.4L295.7,1091.3z M303.8,1101.1c-0.1,0.7-0.5,1.2-1.1,1.6c-0.3,0.2-0.7,0.3-1,0.3c-0.2,0-0.4,0-0.5-0.1
		c-0.4-0.1-0.7-0.5-0.8-0.9c-0.1-0.4,0-0.9,0.2-1.2c0.2-0.3,0.5-0.6,0.8-0.8c0.3-0.3,1-0.8,1.6-0.3c0.3,0.3,0.5,0.6,0.6,0.9
		C303.7,1100.8,303.8,1100.9,303.8,1101.1L303.8,1101.1L303.8,1101.1z M309,1104.7c-0.1,1-0.8,1.8-1.8,2.1c-0.3,0.1-0.5,0.2-0.8,0.2
		c-0.5,0-1.1-0.3-1.4-0.7c-0.5-0.4-0.5-1.1-0.1-1.6c0,0,0,0,0,0l0.1-0.2c0.4-0.5,0.8-0.9,1.4-1.3c0.5-0.3,1.2-0.4,1.7-0.1
		C308.7,1103.4,309,1104,309,1104.7L309,1104.7z M311.6,1109L311.6,1109L311.6,1109c-0.1,0-0.1,0-0.1,0c-0.2,0-0.4-0.1-0.6-0.2
		c-0.2-0.1-0.4-0.3-0.5-0.5c0-0.2,0-0.4,0.1-0.6c0.1-0.2,0.2-0.3,0.3-0.5c0.3-0.4,0.5-0.8,0.8-1.2c0.2-0.3,0.4-0.5,0.7-0.6
		c0.4-0.2,0.9-0.2,1.3-0.1c0.3,0.1,0.4,0.8,0.4,1.1c0.1,1.3-1,2.4-2.3,2.5C311.7,1109,311.7,1109,311.6,1109L311.6,1109z
		 M318.2,1108.7c-0.1,0.1-0.1,0.3-0.2,0.4c-0.1,0.3-0.2,0.6-0.4,0.9c-0.1,0.2-0.3,0.4-0.5,0.5c-0.1,0-0.2,0-0.2,0
		c-0.2,0-0.5-0.1-0.7-0.2c-0.2-0.1-0.3-0.3-0.4-0.5c0-0.3,0-0.5,0.2-0.7l0-0.1c0.3-0.4,0.6-0.8,1-1.1c0.2-0.2,0.5-0.2,0.7-0.1
		C318,1108,318.2,1108.3,318.2,1108.7L318.2,1108.7L318.2,1108.7z M335.8,1099.6c-0.1,0.3-0.2,0.5-0.5,0.7c-0.2,0.1-0.5,0-0.7-0.1
		l-0.2-0.1c-0.5-0.2-0.9-0.5-1.3-0.8c-1.5-1.4-3.1-2.9-4.6-4.3c-1-1-2.1-1.9-3.1-2.9c-0.3-0.3-0.7-0.5-1.1-0.5
		c-0.4,0-0.7,0.2-0.9,0.5c-0.5,0.6-0.4,1.4,0.1,1.9c0,0,0.1,0.1,0.1,0.1c0.7,0.7,1.5,1.4,2.2,2c1.5,1.4,3.1,2.8,4.6,4.3
		c0.5,0.5,0.8,1.1,1,1.7c0.1,0.4,0,0.9-0.3,1.2c-0.2,0.2-0.8,0.1-1.1,0c-0.7-0.4-1.3-0.8-1.9-1.4c-1-0.9-2-1.8-3-2.7
		c-1.2-1.1-2.5-2.3-3.8-3.5c-0.4-0.3-0.9-0.5-1.4-0.5c-0.4,0.2-0.8,0.5-1,0.9c-0.2,0.5,0,1.1,0.4,1.4c1.1,1,2.2,2,3.3,3.1l1,0.9
		c0.3,0.2,0.5,0.5,0.8,0.7c0.6,0.6,1.3,1.2,1.9,1.8c0.3,0.3,0.6,0.7,0.7,1.1c0.1,0.3,0.1,0.6-0.1,0.9c-0.3,0.2-0.6,0.3-0.9,0.1
		c-0.1-0.1-0.3-0.1-0.4-0.2c-0.7-0.3-1.3-0.7-1.9-1.1c-1.1-0.9-2.1-1.9-3.1-2.8c-0.9-0.8-1.9-1.7-2.8-2.6c-0.4-0.3-0.9-0.5-1.4-0.5
		c-0.4,0.2-0.8,0.5-1,0.9c-0.2,0.5,0,1.1,0.5,1.5c1.4,1.2,2.7,2.5,4,3.7l1.5,1.4c0.1,0.1,0.2,0.2,0.3,0.2c0.2,0.2,0.4,0.4,0.6,0.6
		c0.3,0.3,0.5,0.7,0.6,1.1c0.1,0.4-0.1,0.7-0.3,1c-0.1,0.1-0.3,0.2-0.5,0.2c-0.1,0-0.3,0-0.4,0c-0.6-0.1-1.1-0.6-1-1.3
		c0,0,0-0.1,0-0.1c0-1.6-1.2-3-2.9-3.1c-0.2,0-0.5,0-0.7,0c-0.1,0-0.2,0-0.3,0h-0.1l0-0.1c-1.2-2.3-2.3-2.7-5.3-2.2l-0.1,0l-0.1-0.1
		c-0.9-1.8-2.8-2.8-4.8-2.5l-0.1,0l0-0.1c-1.1-2.8-2.3-3.5-5.3-3l-0.1,0l0-0.1c-0.1-0.3-0.1-0.6-0.2-1c-0.1-0.7-0.3-1.5-0.4-2.3
		c-0.1-0.8-0.5-1.4-1-1.9c-0.3-0.2-0.4-0.7-0.2-1c0,0,0,0,0,0c1.3-2.7,2.7-5.4,4-8c0.5-1,1-2,1.5-3.1l0,0l0.1-0.1
		c0-0.1,0.1-0.1,0.2-0.1h0.1l0,0l5.3,1.7l-0.1,0.2c-0.3,0.5-0.5,1-0.8,1.5c-0.7,1.2-1.3,2.5-2,3.8c-0.4,0.8-0.7,1.6-0.9,2.5
		c-0.4,1.3,0.3,2.7,1.6,3.2c2.5,1.1,5.4,0.3,7-1.8c0.3-0.4,0.5-0.8,0.8-1.1c0.3-0.5,0.7-1,1.1-1.5c0.3-0.3,0.6-0.5,1-0.6
		c0.5-0.1,0.9-0.2,1.4-0.3c0.5-0.1,1-0.2,1.5-0.3c0.4-0.2,0.9-0.1,1.2,0.2c2.5,2.1,5,4.2,7.4,6.2c1.8,1.5,3.6,3,5.4,4.5
		C335.6,1097.9,336,1098.8,335.8,1099.6L335.8,1099.6z M340.1,1091c-0.7,0.1-1,0.6-1.3,1.2c0,0.1-0.1,0.1-0.1,0.2
		c-0.4,0.5-0.8,1.1-1.3,1.6c-0.2,0.2-0.4,0.4-0.5,0.6c-0.2,0.2-0.4,0.3-0.6,0.4c-0.3,0-0.5-0.1-0.7-0.3c-1.8-1.5-3.7-3.1-5.5-4.6
		c-2.3-1.9-4.7-3.9-7-5.8c-0.6-0.6-1.5-0.7-2.3-0.4c-1.3,0.4-2.6,0.7-4,0.9c-0.6,0-1.2,0.3-1.5,0.9c-0.8,1.2-1.6,2.4-2.3,3.4
		c-0.8,1.2-2.3,1.6-3.6,1.1l-0.1,0l0-0.1c0.7-2.3,1.8-4.5,3.2-6.5c0.3-0.3,0.6-0.6,1-0.8c1-0.5,1.9-0.9,2.9-1.4
		c1.1-0.5,2.3-1.1,3.5-1.7c1-0.5,2-0.7,3.1-0.6c0.7,0,1.3,0.1,2,0.1c1.8,0.1,3.6,0.2,5.4,0.4c0.9,0.1,1.7-0.1,2.5-0.4
		c0.2-0.1,0.5-0.1,0.7-0.2c0.4-0.2,1,0,1.2,0.4c0,0,0,0.1,0.1,0.1c1.4,2.9,2.9,5.8,4.3,8.7c0.5,0.9,0.9,1.9,1.4,2.8l0.1,0.2
		L340.1,1091z M335.9,1075.6l8.9-4.4l7.8,15.7l-8.8,4.4l-2.7-5.4L335.9,1075.6z"/>
	<path id="Path_174" class="st1" d="M309.3,1065.8h1.7v7h2.6v-8.4c0-0.7-0.6-1.3-1.3-1.3h-2.6l7.7-9l7.7,9h-2.6
		c-0.7,0-1.3,0.6-1.3,1.3v8.4h2.6v-7h1.7c1.4,0,2.5-1.1,2.5-2.5c0-0.6-0.2-1.1-0.6-1.6l-8-9.4c-0.9-1-2.4-1.2-3.5-0.3
		c-0.1,0.1-0.2,0.2-0.3,0.3l-7.9,9.3c-0.5,0.5-0.7,1.1-0.7,1.7c0,0.7,0.3,1.3,0.7,1.8C308,1065.5,308.7,1065.8,309.3,1065.8z"/>
	<circle id="Ellipse_62" class="st0" cx="291.3" cy="1085.4" r="1.7"/>
	<circle id="Ellipse_63" class="st0" cx="347.7" cy="1085.4" r="1.7"/>
</g>
</svg>
