<?xml version="1.0" encoding="utf-8"?>
<!-- Generator: Adobe Illustrator 24.3.0, SVG Export Plug-In . SVG Version: 6.00 Build 0)  -->
<svg version="1.1" id="Warstwa_1" xmlns="http://www.w3.org/2000/svg" xmlns:xlink="http://www.w3.org/1999/xlink" x="0px" y="0px"
	 viewBox="0 0 141.7 141.7" style="enable-background:new 0 0 141.7 141.7;" xml:space="preserve">
<style type="text/css">
	.st0{fill:#6E8A37;}
	.st1{fill-rule:evenodd;clip-rule:evenodd;fill:#6E8A37;}
	.st2{fill:#2F3634;}
	.st3{fill-rule:evenodd;clip-rule:evenodd;fill:#2F3634;}
</style>
<g id="Group_146" transform="translate(-3568.077 -980.579)">
	<path id="Path_103" class="st0" d="M3650.5,1046.5c0.1-0.9-0.5-1.7-1.3-1.9c0-0.3,0-0.7,0.1-1c0.1-0.9,0.1-1.9,0.2-2.9
		c0.1-1.7-0.3-3.4-1.1-4.8c-1.4-2.4-3.8-4-6.6-4.5c-0.4-0.1-0.7-0.1-1.1-0.2c-0.2,0-0.3-0.1-0.5-0.1l-2.4,0l0,0l-0.1,0
		c-0.1,0-0.1,0-0.2,0c-1.4,0.1-2.8,0.5-4.1,1.2c-2.1,1-3.7,2.9-4.4,5.1c-0.4,1.7-0.6,3.4-0.4,5.1c0,0.6,0.1,1.1,0.2,1.6
		c0,0.1,0,0.3,0,0.4c-0.8,0.2-1.3,0.9-1.3,1.8c-0.1,1.5,0.3,2.9,1.2,4c0.4,0.5,0.8,1.1,1,1.7c0.1,0.1,0.1,0.2,0.2,0.3
		c0.9,1.9,2.2,3.7,3.7,5.2c1.5,1.4,3.4,2.1,5.4,2.1c0.4,0,0.8,0,1.1-0.1c1.9-0.3,3.7-1.2,4.9-2.7c1.5-1.7,2.7-3.6,3.6-5.7
		c0.1-0.1,0.1-0.3,0.2-0.4C3650,1049.7,3650.6,1048.2,3650.5,1046.5z M3631.7,1047.4c-0.1-0.3-0.1-0.7-0.2-1
		c-0.1-0.8-0.3-1.5-0.4-2.2c-0.1-0.6-0.1-1.2-0.1-1.8c0-0.2,0-0.5,0-0.7c0,0,0-0.1,0-0.1l0,0c0.9-1.9,1.9-2.8,3.3-3.2
		c0.2-0.1,0.3,0,0.4,0.1c2.3,2.3,5.2,3.8,8.4,4.2c0.8,0.1,1.7,0.2,2.5,0.3c0.4,0,0.7,0.1,1.1,0.1c0.1,0,0.2,0,0.3,0
		c-0.2,1.4-0.5,2.9-0.7,4.3l-0.4,2.4l1-2.1c0.1-0.1,0.1-0.3,0.2-0.4c0.1-0.3,0.3-0.5,0.4-0.8l0,0c0.2-0.3,0.3-0.4,0.4-0.4
		c0.3,0.1,0.4,0.4,0.4,0.6c0.1,1-0.3,2.1-1,2.9c-0.3,0.3-0.5,0.6-0.6,0.9l-0.2,0.5c-0.6,1.5-1.4,2.8-2.3,4.1c-1.9,2.7-5.5,3.5-8.4,2
		c-1.3-0.7-2.3-1.8-2.9-3.2c-0.4-0.7-0.8-1.5-1.1-2.3c-0.2-0.4-0.4-0.9-0.6-1.3c-0.1-0.3-0.3-0.5-0.5-0.8c-0.8-0.8-1.2-1.8-1.1-2.9
		c0-0.1,0-0.2,0.1-0.3c0.1-0.2,0.2-0.3,0.3-0.3h0c0.1,0,0.2,0.1,0.3,0.2c0.2,0.3,0.4,0.6,0.5,0.9c0.1,0.2,0.2,0.3,0.2,0.5l1.1,2
		L3631.7,1047.4z"/>
	<path id="Path_104" class="st1" d="M3639,1070.3c-0.9-0.5-1.8-1.3-2.4-2.2c-0.1-0.1-0.1-0.3,0-0.5c0.5-1.2,1-2.4,1.5-3.6
		c0.1-0.2,0-0.3-0.1-0.5c-0.5-0.5-1-1-1.4-1.5c-0.1-0.1-0.1-0.3,0-0.4c0.3-0.3,0.6-0.6,1-0.9c0.1-0.1,0.2-0.1,0.4-0.1
		c0.6,0,1.2,0,1.8,0c0.4,0,0.9,0.1,1.2,0.5c0.8,0.8,0.8,0.6,0.1,1.5c-0.3,0.4-0.7,0.8-1.2,1.2c0.3,0.8,0.7,1.7,1.1,2.6
		c0.2,0.4,0.3,0.8,0.5,1.2c0.1,0.2,0.1,0.4-0.1,0.5C3640.7,1069,3639.9,1069.7,3639,1070.3z"/>
	<path id="Path_194" class="st0" d="M3661.1,1070.6c0-0.1,0-0.2,0-0.3c0-0.2,0-0.3-0.1-0.5c-0.2-1.6-0.8-3.1-1.8-4.4
		c-0.7-0.9-1.6-1.6-2.7-2.1c-1.5-0.7-3.1-1.3-4.7-1.8c-1.3-0.4-2.6-0.8-3.8-1.2l-0.9-0.2l-0.6-0.2l-1.9-0.6l0.2,1.8
		c0,0.1,0,0.2,0,0.3s0,0.1,0,0.2c0,0.3,0,0.5,0.1,0.8c0,0.6,0,1.1-0.1,1.7l0,0c0,0,0,0.1,0,0.1c-0.1,0.3-0.1,0.5-0.2,0.8
		c-0.3,0.7-0.6,1.4-1,2.1l0,0c0,0.1-0.1,0.1-0.1,0.2c-0.9,1.4-1.9,2.8-3.2,3.9c-0.4,0.4-0.8,0.7-1.3,1c-0.4-0.3-0.9-0.7-1.2-1
		c-1.2-1.1-2.3-2.5-3.2-3.9c0-0.1-0.1-0.1-0.1-0.2l0,0c-0.4-0.7-0.7-1.4-1-2.1c-0.1-0.3-0.2-0.5-0.2-0.8l0-0.1l0,0
		c-0.1-0.6-0.1-1.1-0.1-1.7c0-0.3,0-0.5,0.1-0.8c0-0.1,0-0.1,0-0.2s0-0.2,0-0.3l0.2-1.8l-1.9,0.6l-0.6,0.2l-0.9,0.2
		c-1.3,0.4-2.6,0.7-3.8,1.2c-1.6,0.5-3.2,1.1-4.7,1.8c-1,0.5-2,1.2-2.7,2.1c-1,1.3-1.6,2.8-1.8,4.4c0,0.2,0,0.3-0.1,0.5
		c0,0.1,0,0.2,0,0.3l0,0.1v3.5c0.1,0.6,0.4,1.2,0.8,1.7c0.7,0.8,1.6,1.3,2.6,1.6h13.6c0,0,0.1,0,0.1,0s0.1,0,0.1,0h10
		c0,0,0.1,0,0.1,0s0.1,0,0.1,0h13.6c1-0.3,1.9-0.8,2.6-1.6c0.4-0.5,0.7-1.1,0.8-1.7L3661.1,1070.6L3661.1,1070.6z M3658.8,1074
		c0,0.1-0.1,0.3-0.2,0.4c-0.3,0.3-0.7,0.6-1.1,0.8h-37c-0.4-0.2-0.8-0.5-1.1-0.8c-0.1-0.1-0.2-0.2-0.2-0.4v-3.1c0-0.1,0-0.1,0-0.2
		c0-0.2,0.1-0.4,0.1-0.6c0.1-1.2,0.6-2.3,1.3-3.3c0.5-0.6,1.1-1.1,1.8-1.4c1.4-0.6,2.8-1.2,4.3-1.7c0.2,0,0.4,0,0.5-0.1
		c0.4-0.1,0.9-0.3,1.6-0.5c0.6-0.2,1.2-0.4,1.9-0.6c0,0.4,0,0.8,0.1,1.2c0,0,0,0.1,0,0.1c0,0.1,0,0.2,0,0.3c0,0,0,0.1,0,0.1
		c0.1,0.8,0.4,1.6,0.8,2.3c1.4,3,3.5,5.6,6.2,7.5c0.7,0.5,1.6,0.5,2.3,0c2.7-1.9,4.8-4.5,6.2-7.5c0.4-0.7,0.6-1.5,0.8-2.3
		c0,0,0-0.1,0-0.1c0-0.1,0-0.2,0-0.3c0,0,0-0.1,0-0.1c0-0.4,0.1-0.8,0.1-1.2c0.6,0.2,1.2,0.4,1.9,0.6c0.7,0.2,1.2,0.4,1.6,0.5
		c0.2,0.1,0.3,0.1,0.5,0.1c1.5,0.5,2.9,1,4.3,1.7c0.7,0.3,1.3,0.8,1.8,1.4c0.7,0.9,1.2,2.1,1.3,3.3c0,0.2,0,0.4,0.1,0.6
		c0,0.1,0,0.1,0,0.2L3658.8,1074z"/>
	<g id="Group_144" transform="translate(3568.077 986.883)">
		<path id="Path_103-2" class="st2" d="M36.2,64.6c0.1,0.1,0.1,0.2,0.2,0.3c0.6,1.5,1.5,2.9,2.6,4.1c0.9,1,2.2,1.7,3.5,1.9
			c0.3,0,0.5,0.1,0.8,0.1c1.4,0,2.8-0.6,3.8-1.5c1.1-1.1,2-2.3,2.6-3.7l0.1-0.2c0.2-0.4,0.4-0.8,0.7-1.2c0.7-0.8,1-1.8,0.9-2.9
			c0-0.6-0.4-1.1-0.9-1.3c0-0.1,0-0.2,0-0.3c0-0.4,0.1-0.8,0.1-1.2c0.1-1.2,0-2.4-0.3-3.6c-0.5-1.6-1.6-2.9-3.1-3.6
			c-0.9-0.5-1.9-0.8-2.9-0.9c0,0-0.1,0-0.1,0l-0.1,0l0,0h-1.7c-0.1,0-0.2,0-0.4,0.1c-0.3,0-0.5,0.1-0.8,0.1
			c-1.9,0.3-3.7,1.5-4.7,3.2c-0.6,1.1-0.9,2.3-0.8,3.5c0,0.7,0.1,1.4,0.1,2.1c0,0.2,0,0.5,0.1,0.7c-0.6,0.2-1,0.7-0.9,1.4
			C35,62.7,35.4,63.8,36.2,64.6z M48.2,63.7l0.8-1.4c0.1-0.1,0.1-0.2,0.2-0.3c0.1-0.2,0.2-0.5,0.4-0.7c0.1-0.1,0.2-0.2,0.2-0.2h0
			c0,0,0.1,0.1,0.2,0.2c0,0.1,0,0.1,0.1,0.2c0.1,0.8-0.2,1.5-0.8,2.1c-0.2,0.2-0.3,0.3-0.4,0.5c-0.2,0.3-0.3,0.6-0.4,0.9
			c-0.3,0.5-0.5,1.1-0.8,1.6c-0.5,0.9-1.2,1.7-2.1,2.2c-2.1,1.1-4.6,0.5-6-1.4c-0.6-0.9-1.2-1.9-1.6-3l-0.2-0.4
			c-0.1-0.2-0.3-0.5-0.5-0.7c-0.5-0.6-0.8-1.3-0.7-2c0-0.1,0-0.4,0.3-0.4c0.1,0,0.1,0,0.3,0.3l0,0c0.1,0.2,0.2,0.4,0.3,0.6
			c0,0.1,0.1,0.2,0.1,0.3l0.7,1.5L38,62.1c-0.2-1-0.3-2-0.5-3.1c0.1,0,0.1,0,0.2,0c0.3,0,0.5-0.1,0.8-0.1c0.6-0.1,1.2-0.1,1.8-0.2
			c2.3-0.3,4.4-1.3,6-3c0.1-0.1,0.1-0.1,0.3-0.1c1.1,0.3,2,1.2,2.4,2.3l0,0c0,0,0,0,0,0.1c0,0.2,0,0.3,0,0.5c0,0.4,0,0.8-0.1,1.2
			c-0.1,0.5-0.2,1-0.3,1.6c0,0.2-0.1,0.5-0.1,0.7L48.2,63.7z"/>
		<path id="Path_104-2" class="st3" d="M43.3,78.4c0.7-0.4,1.3-0.9,1.7-1.5c0.1-0.1,0.1-0.2,0-0.3c-0.4-0.9-0.7-1.7-1.1-2.6
			c-0.1-0.1,0-0.2,0.1-0.3c0.4-0.3,0.7-0.7,1-1c0-0.1,0-0.2,0-0.3c-0.2-0.2-0.5-0.4-0.7-0.7c-0.1,0-0.2-0.1-0.3-0.1
			c-0.4,0-0.9,0-1.3,0c-0.3,0-0.6,0.1-0.8,0.3c-0.6,0.6-0.6,0.4-0.1,1.1c0.2,0.3,0.5,0.5,0.8,0.8c-0.2,0.6-0.5,1.2-0.8,1.8
			c-0.1,0.3-0.2,0.6-0.4,0.9c-0.1,0.1-0.1,0.3,0,0.4C42.1,77.5,42.6,78,43.3,78.4z"/>
		<path id="Path_195" class="st2" d="M27.5,78.7c0-0.1,0-0.1,0-0.2c0-0.1,0-0.2,0-0.3c0.1-1.1,0.6-2.2,1.3-3.1
			c0.5-0.6,1.2-1.1,1.9-1.5c1.1-0.5,2.2-0.9,3.4-1.3c0.9-0.3,1.8-0.6,2.7-0.8l0.6-0.2l0.5-0.1l1.3-0.4l-0.1,1.3c0,0.1,0,0.1,0,0.2
			s0,0.1,0,0.1c0,0.2,0,0.4,0,0.5c0,0.4,0,0.8,0.1,1.2v0c0,0,0,0,0,0.1c0,0.2,0.1,0.4,0.2,0.6c0.2,0.5,0.4,1,0.7,1.5v0
			c0,0.1,0.1,0.1,0.1,0.2c0.6,1,1.4,2,2.3,2.8c0.3,0.3,0.6,0.5,0.9,0.7c0.3-0.2,0.6-0.5,0.9-0.7c0.9-0.8,1.6-1.7,2.3-2.8
			c0-0.1,0.1-0.1,0.1-0.2v0c0.3-0.5,0.5-1,0.7-1.5c0.1-0.2,0.1-0.4,0.2-0.6l0-0.1v0c0.1-0.4,0.1-0.8,0.1-1.2c0-0.2,0-0.4,0-0.5
			c0,0,0-0.1,0-0.1s0-0.1,0-0.2l-0.1-1.3l1.3,0.4l0.5,0.1l0.6,0.2c0.9,0.3,1.8,0.5,2.7,0.8c1,0.3,2,0.7,3,1.2l-0.3,0.1
			c-0.7,0.2-1.4,0.5-2.1,0.7c-0.4-0.1-0.7-0.3-1.1-0.4c-0.1,0-0.3,0-0.4-0.1c-0.3-0.1-0.7-0.2-1.2-0.4L49.1,73c0,0.3,0,0.6,0,0.8
			c0,0,0,0,0,0.1c0,0.1,0,0.1,0,0.2c0,0,0,0.1,0,0.1c-0.1,0.6-0.3,1.1-0.6,1.7c-1,2.1-2.5,4-4.4,5.4c-0.5,0.4-1.1,0.4-1.6,0
			C40.5,79.8,39,78,38,75.9c-0.3-0.5-0.4-1.1-0.6-1.7c0,0,0-0.1,0-0.1c0-0.1,0-0.1,0-0.2c0,0,0,0,0-0.1c0-0.3,0-0.6,0-0.8L36,73.4
			c-0.5,0.2-0.9,0.3-1.2,0.4c-0.1,0.1-0.2,0.1-0.4,0.1c-1,0.3-2,0.7-3,1.2c-0.5,0.2-1,0.6-1.3,1c-0.5,0.7-0.8,1.5-0.9,2.3
			c0,0.1,0,0.3-0.1,0.4c0,0,0,0.1,0,0.1v2.2c0,0.1,0.1,0.2,0.1,0.3c0.2,0.2,0.5,0.4,0.8,0.6h16.9v1.7l0,0h-0.1c0,0,0,0-0.1,0h-7.1
			c0,0,0,0-0.1,0h-0.1h-9.7c-0.7-0.2-1.3-0.6-1.8-1.1c-0.3-0.3-0.5-0.8-0.6-1.2L27.5,78.7L27.5,78.7z"/>
	</g>
	<g id="Group_145" transform="translate(3627.245 986.883)">
		<path id="Path_103-3" class="st2" d="M47.9,61.5c0.1-0.6-0.3-1.2-0.9-1.4c0-0.2,0-0.5,0.1-0.7c0-0.7,0.1-1.4,0.1-2.1
			c0.1-1.2-0.2-2.4-0.8-3.5c-1-1.7-2.7-2.9-4.7-3.2c-0.3-0.1-0.5-0.1-0.8-0.1c-0.1,0-0.2,0-0.4-0.1h-1.7l0,0l-0.1,0c0,0-0.1,0-0.1,0
			c-1,0.1-2,0.4-2.9,0.9c-1.5,0.7-2.6,2-3.1,3.6c-0.3,1.2-0.4,2.4-0.3,3.6c0,0.4,0.1,0.8,0.1,1.2l0,0.3c-0.6,0.2-0.9,0.7-0.9,1.3
			c-0.1,1,0.2,2.1,0.9,2.9c0.3,0.4,0.5,0.8,0.7,1.2c0,0.1,0.1,0.1,0.1,0.2c0.6,1.4,1.5,2.6,2.6,3.7c1,1,2.4,1.5,3.8,1.5
			c0.3,0,0.5,0,0.8-0.1c1.4-0.2,2.6-0.9,3.5-1.9c1.1-1.2,1.9-2.6,2.6-4.1c0-0.1,0.1-0.2,0.2-0.3C47.5,63.8,47.9,62.7,47.9,61.5z
			 M34.4,62.1c0-0.2-0.1-0.5-0.1-0.7c-0.1-0.5-0.2-1-0.3-1.6C34,59.4,34,59,34,58.6c0-0.2,0-0.3,0-0.5c0,0,0,0,0-0.1l0,0
			c0.4-1.1,1.3-2,2.4-2.3c0.2,0,0.2,0,0.3,0.1c1.6,1.6,3.7,2.7,6,3c0.6,0.1,1.2,0.1,1.8,0.2c0.3,0,0.5,0,0.8,0.1c0.1,0,0.1,0,0.2,0
			c-0.2,1-0.3,2-0.5,3.1l-0.3,1.7l0.7-1.5c0-0.1,0.1-0.2,0.1-0.3c0.1-0.2,0.2-0.4,0.3-0.6l0,0c0.1-0.2,0.2-0.3,0.3-0.3
			c0.2,0,0.3,0.3,0.3,0.4c0.1,0.7-0.2,1.5-0.7,2c-0.2,0.2-0.3,0.4-0.5,0.7L45,64.5c-0.4,1-1,2-1.6,3c-1.4,1.9-3.9,2.5-6,1.4
			c-0.9-0.5-1.6-1.3-2.1-2.2c-0.3-0.5-0.6-1.1-0.8-1.6c-0.1-0.3-0.3-0.6-0.4-0.9c-0.1-0.2-0.2-0.4-0.4-0.5c-0.5-0.5-0.8-1.3-0.8-2.1
			c0-0.1,0-0.1,0.1-0.2c0.1-0.2,0.2-0.2,0.2-0.2h0c0,0,0.1,0,0.2,0.2c0.1,0.2,0.3,0.4,0.4,0.7c0.1,0.1,0.1,0.2,0.2,0.3l0.8,1.4
			L34.4,62.1z"/>
		<path id="Path_104-3" class="st3" d="M39.6,78.4c-0.7-0.4-1.3-0.9-1.7-1.5c-0.1-0.1-0.1-0.2,0-0.3c0.4-0.9,0.7-1.7,1.1-2.6
			c0.1-0.1,0-0.2-0.1-0.3c-0.4-0.3-0.7-0.7-1-1c0-0.1,0-0.2,0-0.3c0.2-0.2,0.5-0.4,0.7-0.7c0.1,0,0.2-0.1,0.3-0.1c0.4,0,0.9,0,1.3,0
			c0.3,0,0.6,0.1,0.8,0.3c0.6,0.6,0.6,0.4,0.1,1.1c-0.2,0.3-0.5,0.5-0.8,0.8c0.2,0.6,0.5,1.2,0.8,1.8c0.1,0.3,0.2,0.6,0.4,0.9
			c0.1,0.1,0.1,0.3,0,0.4C40.9,77.5,40.3,78,39.6,78.4z"/>
		<path id="Path_196" class="st2" d="M55.4,78.7l0-0.2c0-0.1,0-0.2,0-0.3c-0.1-1.1-0.6-2.2-1.3-3.1c-0.5-0.6-1.2-1.1-1.9-1.5
			c-1.1-0.5-2.2-0.9-3.4-1.3c-0.9-0.3-1.8-0.6-2.7-0.8l-0.6-0.2L45,71.1l-1.3-0.4l0.1,1.3c0,0.1,0,0.1,0,0.2s0,0.1,0,0.1
			c0,0.2,0,0.4,0,0.5c0,0.4,0,0.8-0.1,1.2v0c0,0,0,0,0,0.1c0,0.2-0.1,0.4-0.2,0.6c-0.2,0.5-0.4,1-0.7,1.5v0c0,0.1-0.1,0.1-0.1,0.2
			c-0.6,1-1.4,2-2.3,2.8c-0.3,0.3-0.6,0.5-0.9,0.7c-0.3-0.2-0.6-0.5-0.9-0.7c-0.9-0.8-1.7-1.7-2.3-2.8c0-0.1-0.1-0.1-0.1-0.2v0
			c-0.3-0.5-0.5-1-0.7-1.5c-0.1-0.2-0.1-0.4-0.2-0.6l0-0.1v0c-0.1-0.4-0.1-0.8-0.1-1.2c0-0.2,0-0.4,0-0.5c0,0,0-0.1,0-0.1
			s0-0.1,0-0.2l0.1-1.3l-1.3,0.4l-0.5,0.1l-0.6,0.2c-0.9,0.3-1.8,0.5-2.7,0.8c-1,0.3-2,0.7-3,1.2l0.3,0.1c0.7,0.2,1.4,0.5,2.1,0.7
			c0.4-0.1,0.7-0.3,1.1-0.4c0.1,0,0.3,0,0.4-0.1c0.3-0.1,0.7-0.2,1.2-0.4l1.3-0.4c0,0.3,0,0.6,0,0.8c0,0,0,0,0,0.1
			c0,0.1,0,0.1,0,0.2c0,0,0,0.1,0,0.1c0.1,0.6,0.3,1.1,0.6,1.7c1,2.1,2.5,4,4.4,5.4c0.5,0.4,1.1,0.4,1.6,0c1.9-1.4,3.4-3.2,4.4-5.4
			c0.3-0.5,0.4-1.1,0.6-1.7c0,0,0-0.1,0-0.1c0-0.1,0-0.1,0-0.2c0,0,0,0,0-0.1c0-0.3,0-0.6,0-0.8l1.3,0.4c0.5,0.2,0.9,0.3,1.2,0.4
			c0.1,0.1,0.2,0.1,0.4,0.1c1,0.3,2,0.7,3,1.2c0.5,0.2,1,0.6,1.3,1c0.5,0.7,0.8,1.5,0.9,2.3c0,0.1,0,0.3,0.1,0.4c0,0,0,0.1,0,0.1
			v2.2c0,0.1-0.1,0.2-0.1,0.3c-0.2,0.2-0.5,0.4-0.8,0.6H36v1.7l0,0h0.1c0,0,0,0,0.1,0h7.1c0,0,0,0,0.1,0h0.1H53
			c0.7-0.2,1.3-0.6,1.8-1.1c0.3-0.3,0.5-0.8,0.6-1.2L55.4,78.7L55.4,78.7z"/>
	</g>
</g>
</svg>
